<svg xmlns="http://www.w3.org/2000/svg" width="152.662" height="226.74" viewBox="303.669 2556 152.662 226.74"><g data-name="Group 59"><g data-name="Group 41"><path d="m322.542 2632.087-2.454 2.476c-.079.079-.101.065-.067-.042a.631.631 0 0 0 .019-.185c-.05-16.457-.055-32.914-.014-49.371.002-.97.03-1.695.085-2.173.359-3.162 1.739-5.788 4.14-7.876a11.584 11.584 0 0 1 6.286-2.815c.478-.06 1.195-.093 2.15-.1 1.908-.012 4.655-.018 8.242-.018 27.687 0 55.375-.006 83.062-.017 1.727 0 3.154.014 4.282.044a11.426 11.426 0 0 1 3.234.567c3.033.994 5.33 2.901 6.893 5.72.885 1.595 1.379 3.364 1.482 5.307.035.663.052 2.133.05 4.41l-.038 91.496c-.002 3.518-1.189 6.47-3.561 8.858-1.922 1.935-4.242 3.08-6.96 3.434-.5.065-1.216.098-2.15.098h-49.282c-.05 0-.056-.017-.022-.052l46.021-46.505a.064.064 0 0 0 0-.09l-11.69-11.8a.058.058 0 0 0-.084 0l-57.792 58.387a.201.201 0 0 1-.143.06h-14.272c-.43 0-.676-.193-.74-.58-.44-2.698.115-5.066 1.663-7.105.237-.311.72-.848 1.449-1.609 7.512-7.846 14.12-14.652 19.828-20.42l27.442-27.73a.07.07 0 0 0 .02-.051.073.073 0 0 0-.02-.051l-11.853-11.978a.077.077 0 0 0-.11 0l-45.604 46.084-.56.578a19.45 19.45 0 0 1-2.431 2.125c-.636.468-1.248.846-1.836 1.133a12.644 12.644 0 0 1-3.859 1.158c-.72.099-1.339.164-1.855.194-.378.024-.6.033-.665.028a1.08 1.08 0 0 1-.638-.254.437.437 0 0 1-.16-.347l-.001-14.597c0-.035.014-.069.039-.094l34.847-35.214a.057.057 0 0 0 .016-.04.055.055 0 0 0-.016-.04l-11.685-11.807a.054.054 0 0 0-.039-.017.056.056 0 0 0-.04.017 9327.892 9327.892 0 0 1-20.609 20.804Z" fill="#f72323" fill-rule="evenodd" data-name="Path 259"/><g data-name="Group 40"><path d="M422.708 2557.667c1.762 1.23 2.957 2.879 3.582 4.944.412 1.362.813 2.728 1.204 4.097a.043.043 0 0 1-.04.055h-48.718c-.101 0-.103-.014-.005-.042a35160.95 35160.95 0 0 1 35.225-10.094c.972-.278 1.685-.45 2.14-.518 2.411-.357 4.615.163 6.612 1.558Z" fill="#17177f" fill-rule="evenodd" data-name="Path 258"/><path d="M305.35 2589.95a8.95 8.95 0 0 1 3.646-3.1c.436-.205 1.129-.445 2.08-.723 1.011-.295 2.039-.59 3.082-.882a.07.07 0 0 1 .09.069l.006 47.965c0 .114-.016.116-.047.007-3.28-11.394-6.545-22.782-9.795-34.164-.315-1.105-.503-1.815-.564-2.13-.486-2.528.015-4.876 1.502-7.042Z" fill="#17177f" fill-rule="evenodd" data-name="Path 260"/><path d="M453.896 2674.868c-1.145 1.288-2.465 2.153-3.96 2.594-1.363.403-2.73.8-4.097 1.191a.043.043 0 0 1-.038-.007.044.044 0 0 1-.017-.034v-47.56c0-.033 0-.068-.002-.104-.022-.476.013-.509.103-.1l.02.08c3.314 11.522 6.616 23.045 9.907 34.573.257.901.412 1.617.466 2.148.275 2.719-.519 5.125-2.382 7.22Z" fill="#17177f" fill-rule="evenodd" data-name="Path 261"/><path d="M336.435 2705.502c-1.071-.929-1.865-2.016-2.382-3.263a14.718 14.718 0 0 1-.575-1.694l-.345-1.245c-.206-.702-.404-1.39-.595-2.063a.1.1 0 0 1 .095-.128c15.394 0 30.726-.004 45.995-.012.854 0 1.731.013 2.631.042.061.002.062.012.003.029-11.677 3.35-23.358 6.7-35.042 10.05-.98.28-1.694.456-2.139.526-2.854.449-5.403-.299-7.646-2.242Z" fill="#17177f" fill-rule="evenodd" data-name="Path 262"/></g></g><g data-name="Group 42"><g data-name="Group 38"><path d="m312.23 2737.945.084 4.206a.308.308 0 0 0 .313.294l14.456.096c.116.002.21.095.21.21v6.706c0 .125-.102.226-.226.226h-18.473c-2.128 0-3.574-.72-4.338-2.16-.392-.737-.587-2.146-.587-4.226v-19.65c0-3.56 1.709-5.34 5.126-5.336 6.067.005 12.157.008 18.272.008.124 0 .225.1.225.225v6.743a.27.27 0 0 1-.27.27h-13.976c-.41-.001-.744.295-.748.663l-.028 3.888c0 .111.099.201.22.201l12.096.077a.61.61 0 0 1 .421.17c.11.108.172.254.17.405l-.08 6.542c0 .051-.022.1-.06.136a.195.195 0 0 1-.141.053 159.612 159.612 0 0 0-12.458.044.211.211 0 0 0-.209.21Z" fill="#17177f" fill-rule="evenodd" data-name="Path 402"/><path d="M352.174 2734.898c.21.437.314.414.314-.068v-16.23c0-.152.122-.277.273-.277l8.243.024c.114 0 .205.09.205.201l.025 30.834c0 .154-.126.279-.282.281-2.233.03-4.518.04-6.856.032-1.635-.005-3.011-.469-4.13-1.39-.659-.545-1.443-1.675-2.352-3.39a313.04 313.04 0 0 1-5.987-11.919c-.332-.705-.499-.667-.499.113l.025 16.3c0 .116-.09.21-.202.21l-8.058.064a.21.21 0 0 1-.209-.209v-30.897a.25.25 0 0 1 .246-.25c2.753-.04 5.385-.008 7.897.097 1.464.061 2.729.706 3.796 1.934.624.721 1.253 1.734 1.886 3.04.656 1.354.987 2.034.993 2.043a425.656 425.656 0 0 1 4.672 9.457Z" fill="#17177f" fill-rule="evenodd" data-name="Path 400"/><path d="m385.786 2725.774-.024 23.671c0 .125-.1.226-.221.226l-8.046-.065a.21.21 0 0 1-.206-.209l-.068-23.475a.388.388 0 0 0-.386-.382l-10-.064a.207.207 0 0 1-.21-.205v-6.683a.21.21 0 0 1 .214-.205l27.765-.072c.114 0 .207.093.21.209l.023 6.755a.27.27 0 0 1-.27.273l-8.584.025a.199.199 0 0 0-.197.2Z" fill="#17177f" fill-rule="evenodd" data-name="Path 398"/><path d="m420.985 2740.352 6.125 8.488a.21.21 0 0 1-.127.33 27.937 27.937 0 0 1-3.755.463c-2.793.156-5.1-.794-6.918-2.85-.8-.907-2.07-2.784-3.81-5.63a.464.464 0 0 0-.297-.21 10.888 10.888 0 0 0-3.275-.131.226.226 0 0 0-.206.218l-.064 8.427a.226.226 0 0 1-.226.226h-8.004a.198.198 0 0 1-.199-.199v-31.124c0-.11.09-.199.199-.199h12.147c3.978 0 6.438.14 7.379.42 2.82.841 4.728 2.917 5.725 6.23 1.16 3.853.962 7.543-.595 11.069-.809 1.829-2.154 3.235-4.036 4.218a.177.177 0 0 0-.09.114.168.168 0 0 0 .027.14Zm-3.981-7.993c.655-1.081.872-2.382.65-3.901-.264-1.803-1.131-2.843-2.6-3.12-.135-.027-1.165-.04-3.09-.04h-3.103a.204.204 0 0 0-.207.202l.024 7.902c0 .11.086.201.194.206 1.446.055 2.89.066 4.334.031.032 0 .432.016 1.201.048 1.166.048 2.031-.395 2.597-1.328Z" fill="#17177f" fill-rule="evenodd" data-name="Path 395"/><path d="m441.377 2730.225 12.465.096a.21.21 0 0 1 .213.205v6.683a.21.21 0 0 1-.213.205l-12.264.069a.433.433 0 0 0-.295.117.367.367 0 0 0-.115.277l.116 3.832c.01.336.298.605.652.607l14.081.092c.171 0 .31.137.31.306l-.02 6.554a.283.283 0 0 1-.286.282h-15.167c-.046 0-.783.024-2.212.072-1.305.046-2.412-.079-3.32-.374-1.1-.356-1.859-1.057-2.277-2.103-.22-.55-.34-1.51-.362-2.879-.099-6.549-.146-13.098-.14-19.647.002-1.622.158-2.861.466-3.72.44-1.224 1.288-2.012 2.545-2.364a10.05 10.05 0 0 1 2.783-.373c5.897.016 11.806.024 17.725.024.148 0 .269.118.269.265l-.02 6.534a.449.449 0 0 1-.455.439l-14.061.096a.505.505 0 0 0-.515.479l-.112 4.025c-.002.108.091.198.209.2Z" fill="#17177f" fill-rule="evenodd" data-name="Path 393"/></g><path d="M305.085 2782.71c-.275 0-.52-.06-.733-.178a1.297 1.297 0 0 1-.502-.492 1.414 1.414 0 0 1-.181-.721c0-.275.057-.516.171-.726.114-.209.273-.373.475-.492.202-.119.434-.178.696-.178.258 0 .48.058.666.173.186.116.327.275.425.477.098.203.147.436.147.7a.211.211 0 0 1-.065.159.226.226 0 0 1-.164.063h-2.003v-.402h1.988l-.204.14a1.084 1.084 0 0 0-.1-.449.76.76 0 0 0-.268-.314.747.747 0 0 0-.422-.115.898.898 0 0 0-.485.125.806.806 0 0 0-.306.344c-.07.146-.104.31-.104.495 0 .184.041.348.124.492a.913.913 0 0 0 .343.342.99.99 0 0 0 .818.067.977.977 0 0 0 .261-.133.28.28 0 0 1 .162-.057.216.216 0 0 1 .151.052c.057.05.087.106.09.166.003.06-.023.112-.08.156a1.37 1.37 0 0 1-.42.22 1.49 1.49 0 0 1-.48.086Zm9.414.03a1.86 1.86 0 0 1-1.365-.58 1.987 1.987 0 0 1-.407-.64 2.117 2.117 0 0 1-.147-.794c0-.28.049-.543.147-.786.097-.242.233-.455.407-.637.174-.183.377-.326.61-.43.231-.103.483-.155.755-.155.255 0 .475.033.659.1.184.067.368.178.554.332.027.02.047.04.062.062a.191.191 0 0 1 .03.066.354.354 0 0 1 .007.077.207.207 0 0 1-.067.159.26.26 0 0 1-.161.07.26.26 0 0 1-.184-.063 1.473 1.473 0 0 0-.38-.246 1.32 1.32 0 0 0-.52-.085c-.196 0-.38.04-.552.12-.172.08-.324.191-.455.332-.13.14-.233.304-.305.49-.073.185-.11.384-.11.594 0 .215.037.415.11.6.072.186.174.35.305.49s.283.25.455.33c.173.078.356.117.552.117.169 0 .329-.03.48-.088.15-.058.296-.14.435-.243a.26.26 0 0 1 .176-.058.222.222 0 0 1 .147.07c.04.042.06.1.06.174a.252.252 0 0 1-.02.097.275.275 0 0 1-.06.088 1.88 1.88 0 0 1-1.218.437Zm8.921-.03c-.268 0-.505-.06-.71-.178a1.286 1.286 0 0 1-.485-.492 1.445 1.445 0 0 1-.177-.721c0-.275.06-.516.177-.726.117-.209.279-.373.484-.492.206-.119.443-.178.711-.178.266 0 .5.06.706.178.206.119.367.283.485.492.118.21.177.451.177.726 0 .271-.058.511-.174.72-.116.21-.277.374-.483.493a1.394 1.394 0 0 1-.71.178Zm0-.452a.84.84 0 0 0 .768-.452c.075-.14.112-.303.112-.487a1.04 1.04 0 0 0-.112-.49.835.835 0 0 0-.768-.454.865.865 0 0 0-.457.12.853.853 0 0 0-.313.334 1.02 1.02 0 0 0-.115.49c0 .184.039.347.115.487.076.14.18.251.313.332.133.08.285.12.457.12Zm11.507.437a.245.245 0 0 1-.182-.073.25.25 0 0 1-.072-.183v-1.436c0-.211-.051-.368-.154-.47a.546.546 0 0 0-.402-.153.552.552 0 0 0-.426.18.655.655 0 0 0-.166.463h-.413c0-.218.047-.41.14-.575a.997.997 0 0 1 .39-.39c.167-.093.359-.14.574-.14a.99.99 0 0 1 .502.125c.146.084.26.207.34.37.082.162.122.359.122.59v1.436a.243.243 0 0 1-.254.256Zm-3.316 0a.245.245 0 0 1-.181-.073.25.25 0 0 1-.073-.183v-2.235c0-.077.024-.139.073-.186a.25.25 0 0 1 .181-.07c.076 0 .138.023.184.07.046.047.07.11.07.186v2.235a.243.243 0 0 1-.254.256Zm1.66 0a.245.245 0 0 1-.181-.073.25.25 0 0 1-.072-.183v-1.436c0-.211-.051-.368-.154-.47a.546.546 0 0 0-.403-.153.56.56 0 0 0-.427.18.65.65 0 0 0-.17.463h-.313c0-.218.043-.41.13-.575a.974.974 0 0 1 .358-.39.976.976 0 0 1 .522-.14.99.99 0 0 1 .502.125c.145.084.259.207.34.37.081.162.122.359.122.59v1.436a.243.243 0 0 1-.254.256Zm12.133 0a.245.245 0 0 1-.181-.073.25.25 0 0 1-.072-.183v-1.436c0-.211-.052-.368-.154-.47a.546.546 0 0 0-.403-.153.552.552 0 0 0-.425.18.655.655 0 0 0-.167.463h-.412c0-.218.046-.41.139-.575a.996.996 0 0 1 .39-.39c.168-.093.359-.14.574-.14a.99.99 0 0 1 .503.125c.145.084.259.207.34.37.081.162.122.359.122.59v1.436a.243.243 0 0 1-.254.256Zm-3.316 0a.245.245 0 0 1-.181-.073.25.25 0 0 1-.072-.183v-2.235c0-.077.024-.139.072-.186a.25.25 0 0 1 .181-.07c.077 0 .138.023.184.07.047.047.07.11.07.186v2.235a.243.243 0 0 1-.254.256Zm1.66 0a.245.245 0 0 1-.18-.073.25.25 0 0 1-.073-.183v-1.436c0-.211-.051-.368-.154-.47a.546.546 0 0 0-.402-.153.56.56 0 0 0-.428.18.65.65 0 0 0-.17.463h-.312c0-.218.043-.41.129-.575a.974.974 0 0 1 .358-.39.976.976 0 0 1 .522-.14.99.99 0 0 1 .502.125c.146.084.26.207.34.37.082.162.122.359.122.59v1.436a.243.243 0 0 1-.254.256Zm9.842.015c-.275 0-.52-.06-.733-.178a1.296 1.296 0 0 1-.502-.492 1.414 1.414 0 0 1-.182-.721c0-.275.057-.516.172-.726.114-.209.272-.373.474-.492.203-.119.435-.178.696-.178.259 0 .48.058.667.173.185.116.327.275.425.477.097.203.146.436.146.7a.211.211 0 0 1-.064.159.226.226 0 0 1-.164.063h-2.004v-.402h1.989l-.204.14a1.084 1.084 0 0 0-.1-.449.76.76 0 0 0-.268-.314.747.747 0 0 0-.423-.115.898.898 0 0 0-.484.125.806.806 0 0 0-.306.344c-.07.146-.105.31-.105.495 0 .184.042.348.125.492a.913.913 0 0 0 .343.342.99.99 0 0 0 .818.067.977.977 0 0 0 .26-.133.28.28 0 0 1 .162-.057.216.216 0 0 1 .152.052c.056.05.086.106.09.166.003.06-.024.112-.08.156a1.37 1.37 0 0 1-.42.22 1.49 1.49 0 0 1-.48.086Zm7.867-1.738c0-.2.05-.38.147-.54a1.091 1.091 0 0 1 .942-.52c.199 0 .347.034.445.099.098.065.135.143.112.233a.193.193 0 0 1-.057.108.197.197 0 0 1-.097.048.291.291 0 0 1-.12-.005 1.38 1.38 0 0 0-.571-.01.772.772 0 0 0-.4.206.525.525 0 0 0-.147.381h-.254Zm.005 1.718c-.08 0-.14-.02-.184-.063-.043-.042-.064-.104-.064-.188v-2.245c0-.08.021-.142.064-.186.043-.043.105-.065.184-.065.083 0 .145.02.187.063.041.042.062.104.062.188v2.245c0 .08-.02.142-.062.186-.042.043-.104.065-.187.065Zm9.016.02c-.265 0-.501-.061-.708-.183a1.317 1.317 0 0 1-.487-.497 1.425 1.425 0 0 1-.177-.711c0-.271.058-.512.174-.723.116-.211.275-.376.477-.495.202-.119.434-.178.696-.178.196 0 .375.038.537.113.163.075.308.188.438.339.046.053.063.109.05.166a.262.262 0 0 1-.11.15.187.187 0 0 1-.154.033.302.302 0 0 1-.154-.088.795.795 0 0 0-.607-.261.843.843 0 0 0-.447.118.815.815 0 0 0-.303.329c-.073.14-.11.306-.11.497 0 .18.038.342.112.482.075.14.178.252.31.334a.86.86 0 0 0 .463.123.993.993 0 0 0 .306-.043.728.728 0 0 0 .241-.133.3.3 0 0 1 .164-.072.194.194 0 0 1 .15.047.24.24 0 0 1 .094.158.187.187 0 0 1-.06.159 1.256 1.256 0 0 1-.895.336Zm8.847 0c-.275 0-.52-.06-.733-.178a1.296 1.296 0 0 1-.502-.492 1.414 1.414 0 0 1-.182-.721c0-.275.057-.516.172-.726.114-.209.272-.373.474-.492.203-.119.435-.178.696-.178.259 0 .481.058.667.173.185.116.327.275.425.477.097.203.146.436.146.7a.211.211 0 0 1-.064.159.226.226 0 0 1-.164.063h-2.004v-.402h1.989l-.204.14a1.084 1.084 0 0 0-.1-.449.76.76 0 0 0-.268-.314.747.747 0 0 0-.423-.115.898.898 0 0 0-.484.125.806.806 0 0 0-.306.344c-.07.146-.104.31-.104.495 0 .184.041.348.124.492a.913.913 0 0 0 .343.342.99.99 0 0 0 .818.067.978.978 0 0 0 .26-.133.28.28 0 0 1 .162-.057.216.216 0 0 1 .152.052c.056.05.086.106.09.166.003.06-.024.112-.08.156a1.37 1.37 0 0 1-.42.22 1.49 1.49 0 0 1-.48.086Zm15.506-.02a.254.254 0 0 1-.258-.261v-3.4a.252.252 0 0 1 .258-.261h.994c.249 0 .469.055.661.166.192.11.342.263.45.46.108.195.162.42.162.675 0 .244-.054.462-.162.652a1.15 1.15 0 0 1-.45.447c-.192.107-.412.161-.66.161h-.737v1.1a.258.258 0 0 1-.072.186.247.247 0 0 1-.186.075Zm.258-1.843h.736a.791.791 0 0 0 .403-.1.726.726 0 0 0 .273-.277.802.802 0 0 0 .1-.401.876.876 0 0 0-.1-.425.748.748 0 0 0-.273-.289.762.762 0 0 0-.403-.105h-.736v1.597Zm8.991 1.843a.651.651 0 0 1-.388-.12.799.799 0 0 1-.263-.33 1.15 1.15 0 0 1-.094-.48v-2.741a.241.241 0 0 1 .249-.251c.072 0 .132.023.178.07.047.047.07.107.07.181v2.742c0 .124.023.226.07.306.046.08.105.12.178.12h.125c.066 0 .12.024.161.071a.263.263 0 0 1 .062.18.216.216 0 0 1-.094.182.397.397 0 0 1-.244.07h-.01Zm7.644.02c-.242 0-.459-.061-.651-.183a1.298 1.298 0 0 1-.455-.497 1.492 1.492 0 0 1-.167-.711c0-.264.06-.502.182-.713a1.35 1.35 0 0 1 1.19-.683 1.336 1.336 0 0 1 1.186.683c.121.21.182.449.182.713h-.194c0 .264-.056.501-.167.71-.11.21-.263.376-.455.498s-.41.183-.651.183Zm.1-.452a.842.842 0 0 0 .765-.46 1 1 0 0 0 .114-.479c0-.18-.038-.342-.114-.485a.842.842 0 0 0-.766-.46.846.846 0 0 0-.45.124.883.883 0 0 0-.318.336.992.992 0 0 0-.116.485c0 .177.038.337.116.48a.883.883 0 0 0 .319.336.846.846 0 0 0 .45.123Zm1.113.437a.245.245 0 0 1-.181-.073.25.25 0 0 1-.073-.183v-.768l.095-.533.413.181v1.12a.25.25 0 0 1-.073.183.245.245 0 0 1-.181.073Zm7.813-.005a.809.809 0 0 1-.448-.128.895.895 0 0 1-.313-.35 1.065 1.065 0 0 1-.114-.496v-2.396a.24.24 0 0 1 .249-.251.24.24 0 0 1 .178.07c.047.047.07.108.07.181v2.396c0 .134.036.246.11.336.072.09.162.136.268.136h.169c.06 0 .11.023.151.07a.263.263 0 0 1 .063.18.227.227 0 0 1-.082.182.313.313 0 0 1-.212.07h-.09Zm-1.104-2.215a.238.238 0 0 1-.169-.06.197.197 0 0 1-.065-.15.21.21 0 0 1 .065-.161c.043-.04.1-.06.17-.06h1.148c.07 0 .125.02.169.06a.21.21 0 0 1 .064.16c0 .06-.021.11-.064.151-.044.04-.1.06-.17.06h-1.148Zm8.216 2.215a.24.24 0 0 1-.17-.07.243.243 0 0 1-.074-.186v-2.476c0-.241.047-.45.142-.628a1.03 1.03 0 0 1 .395-.414c.169-.099.364-.148.587-.148a.26.26 0 0 1 .181.065.214.214 0 0 1 .072.166.216.216 0 0 1-.072.163.254.254 0 0 1-.181.068.58.58 0 0 0-.54.321.774.774 0 0 0-.077.357v2.526a.253.253 0 0 1-.07.186.26.26 0 0 1-.193.07Zm-.458-2.215a.238.238 0 0 1-.169-.06.197.197 0 0 1-.064-.15.21.21 0 0 1 .064-.161c.043-.04.1-.06.17-.06h1.227c.07 0 .126.02.17.06a.21.21 0 0 1 .064.16c0 .06-.022.11-.065.151-.043.04-.1.06-.169.06h-1.228Zm8.936 2.235c-.268 0-.505-.06-.71-.178a1.286 1.286 0 0 1-.485-.492 1.445 1.445 0 0 1-.177-.721c0-.275.06-.516.177-.726.118-.209.28-.373.485-.492.205-.119.442-.178.71-.178.266 0 .501.06.706.178.206.119.367.283.485.492.118.21.177.451.177.726 0 .271-.058.511-.174.72-.116.21-.277.374-.483.493a1.394 1.394 0 0 1-.71.178Zm0-.452a.839.839 0 0 0 .768-.452c.075-.14.112-.303.112-.487a1.04 1.04 0 0 0-.111-.49.835.835 0 0 0-.769-.454.865.865 0 0 0-.457.12.853.853 0 0 0-.313.334 1.02 1.02 0 0 0-.114.49c0 .184.038.347.114.487.076.14.18.251.313.332.133.08.285.12.457.12Zm8.181-1.286c0-.2.049-.38.147-.54a1.091 1.091 0 0 1 .942-.52c.199 0 .347.034.445.099.098.065.135.143.112.233a.193.193 0 0 1-.058.108.196.196 0 0 1-.096.048.292.292 0 0 1-.12-.005 1.38 1.38 0 0 0-.571-.01.772.772 0 0 0-.4.206.525.525 0 0 0-.147.381h-.254Zm.005 1.718c-.08 0-.14-.02-.184-.063-.043-.042-.064-.104-.064-.188v-2.245c0-.08.021-.142.064-.186.043-.043.105-.065.184-.065.083 0 .145.02.187.063.041.042.062.104.062.188v2.245c0 .08-.021.142-.062.186-.042.043-.104.065-.187.065Zm11.551.005a.245.245 0 0 1-.181-.073.25.25 0 0 1-.072-.183v-1.436c0-.211-.052-.368-.154-.47a.546.546 0 0 0-.403-.153.552.552 0 0 0-.425.18.655.655 0 0 0-.167.463h-.412c0-.218.046-.41.139-.575a.996.996 0 0 1 .39-.39c.168-.093.359-.14.574-.14a.99.99 0 0 1 .503.125c.145.084.259.207.34.37.081.162.122.359.122.59v1.436a.243.243 0 0 1-.254.256Zm-3.316 0a.245.245 0 0 1-.181-.073.25.25 0 0 1-.072-.183v-2.235c0-.077.024-.139.072-.186a.25.25 0 0 1 .181-.07c.077 0 .138.023.184.07.047.047.07.11.07.186v2.235a.243.243 0 0 1-.254.256Zm1.66 0a.245.245 0 0 1-.18-.073.25.25 0 0 1-.073-.183v-1.436c0-.211-.051-.368-.154-.47a.546.546 0 0 0-.402-.153.56.56 0 0 0-.428.18.65.65 0 0 0-.169.463h-.313c0-.218.043-.41.129-.575a.974.974 0 0 1 .358-.39.976.976 0 0 1 .522-.14.99.99 0 0 1 .502.125c.146.084.26.207.34.37.082.162.122.359.122.59v1.436a.243.243 0 0 1-.254.256Z" fill="#17177f" fill-rule="evenodd" data-name="Path 403"/><g data-name="Group 39"><path d="m419.09 2768.05 3.66 5.071a.126.126 0 0 1-.076.197c-.76.145-1.507.237-2.243.277-1.67.093-3.047-.475-4.134-1.703-.478-.542-1.237-1.663-2.276-3.364a.278.278 0 0 0-.178-.126 6.505 6.505 0 0 0-1.956-.078.135.135 0 0 0-.124.13l-.037 5.036c0 .074-.06.135-.135.135h-4.783a.118.118 0 0 1-.119-.119v-18.597c0-.065.053-.118.119-.118h7.258c2.377 0 3.846.084 4.408.251 1.685.502 2.826 1.743 3.421 3.722.693 2.302.575 4.507-.355 6.613-.484 1.093-1.287 1.933-2.412 2.52a.106.106 0 0 0-.054.069.1.1 0 0 0 .016.083Zm-2.378-4.776c.392-.646.521-1.423.389-2.331-.158-1.077-.676-1.699-1.554-1.864-.081-.016-.696-.024-1.846-.024h-1.855a.122.122 0 0 0-.123.12l.014 4.722c0 .066.052.12.116.123.864.033 1.727.04 2.59.019l.717.028c.697.029 1.214-.236 1.552-.793Z" fill="#17177f" fill-rule="evenodd" data-name="Path 409"/><path d="m395.719 2761.99 7.438.057c.07 0 .127.055.127.122v3.988a.125.125 0 0 1-.127.122l-7.318.041a.258.258 0 0 0-.176.07.219.219 0 0 0-.069.165l.07 2.287c.005.2.177.361.388.362l8.403.056c.102 0 .185.081.185.182l-.012 3.91a.17.17 0 0 1-.17.169h-9.051c-.027 0-.467.014-1.32.043-.779.027-1.44-.047-1.982-.223-.655-.213-1.108-.631-1.358-1.255-.13-.328-.203-.9-.216-1.718a734.16 734.16 0 0 1-.084-11.723c.002-.968.095-1.708.279-2.22.262-.73.768-1.201 1.518-1.41a5.999 5.999 0 0 1 1.66-.224c3.52.01 7.046.014 10.577.014.09 0 .161.071.161.159l-.012 3.899a.268.268 0 0 1-.27.261l-8.392.058a.301.301 0 0 0-.307.286l-.067 2.401c-.001.065.055.119.125.12Z" fill="#17177f" fill-rule="evenodd" data-name="Path 390"/><path d="m447.408 2761.99 7.438.057c.07 0 .127.055.127.122v3.988a.125.125 0 0 1-.127.122l-7.319.041a.258.258 0 0 0-.175.07.219.219 0 0 0-.07.165l.07 2.287c.006.2.178.361.389.362l8.403.056c.102 0 .185.081.185.182l-.012 3.91a.17.17 0 0 1-.17.169h-9.051c-.028 0-.468.014-1.32.043-.78.027-1.44-.047-1.982-.223-.656-.213-1.109-.631-1.358-1.255-.131-.328-.203-.9-.216-1.718a734.16 734.16 0 0 1-.084-11.723c.002-.968.094-1.708.278-2.22.263-.73.769-1.201 1.52-1.41a5.999 5.999 0 0 1 1.66-.224c3.519.01 7.044.014 10.576.014.089 0 .16.071.16.159l-.011 3.899a.268.268 0 0 1-.271.261l-8.39.058a.301.301 0 0 0-.308.286l-.067 2.401c-.001.065.054.119.124.12Z" fill="#17177f" fill-rule="evenodd" data-name="Path 389"/><path d="M437.13 2768.214c.19-.124.375-.186.556-.186.215 0 .372.074.47.223l1.846 2.798c.041.066.062.14.062.223 0 .107-.03.213-.093.316a.943.943 0 0 1-.266.278c-.669.504-1.513.923-2.532 1.257-1.02.335-1.963.502-2.83.502-1.75 0-3.351-.417-4.804-1.251a9.304 9.304 0 0 1-3.449-3.411c-.846-1.44-1.269-3.024-1.269-4.749 0-1.734.423-3.32 1.27-4.761a9.304 9.304 0 0 1 3.448-3.411c1.453-.834 3.054-1.251 4.804-1.251.842 0 1.78.171 2.811.514 1.032.342 1.911.778 2.637 1.306.199.149.298.326.298.533 0 .107-.03.202-.087.284l-1.882 2.762c-.1.14-.248.21-.446.21a.845.845 0 0 1-.483-.16 5.25 5.25 0 0 0-1.4-.744c-.527-.19-1.01-.284-1.448-.284-.924 0-1.77.222-2.538.668a5 5 0 0 0-1.827 1.814 4.873 4.873 0 0 0-.674 2.52c0 .908.224 1.742.674 2.501.45.76 1.06 1.36 1.827 1.802a5 5 0 0 0 2.538.662c.43 0 .904-.09 1.424-.272.52-.182.974-.413 1.362-.693Z" fill="#17177f" fill-rule="evenodd" data-name="Path 391"/><path d="M315.977 2768.214a1.02 1.02 0 0 1 .557-.186c.215 0 .371.074.47.223l1.845 2.798c.042.066.062.14.062.223a.607.607 0 0 1-.092.316.94.94 0 0 1-.267.278c-.668.504-1.512.923-2.532 1.257-1.02.335-1.963.502-2.83.502-1.75 0-3.35-.417-4.804-1.251a9.302 9.302 0 0 1-3.448-3.411c-.846-1.44-1.27-3.024-1.27-4.749 0-1.734.424-3.32 1.27-4.761a9.302 9.302 0 0 1 3.448-3.411c1.453-.834 3.055-1.251 4.805-1.251.842 0 1.779.171 2.81.514 1.032.342 1.912.778 2.638 1.306.198.149.297.326.297.533a.484.484 0 0 1-.087.284l-1.882 2.762c-.099.14-.247.21-.445.21a.846.846 0 0 1-.483-.16 5.248 5.248 0 0 0-1.4-.744c-.528-.19-1.01-.284-1.448-.284-.925 0-1.771.222-2.539.668a5 5 0 0 0-1.826 1.814 4.873 4.873 0 0 0-.675 2.52c0 .908.225 1.742.675 2.501.45.76 1.059 1.36 1.826 1.802a5 5 0 0 0 2.539.662c.429 0 .904-.09 1.424-.272.52-.182.974-.413 1.362-.693Z" fill="#17177f" fill-rule="evenodd" data-name="Path 404"/><path d="M320.983 2764.214c0-1.734.417-3.32 1.25-4.761a9.203 9.203 0 0 1 3.412-3.411c1.44-.834 3.028-1.251 4.761-1.251 1.726 0 3.308.417 4.749 1.25a9.203 9.203 0 0 1 3.411 3.412c.834 1.44 1.25 3.027 1.25 4.761 0 1.725-.416 3.304-1.25 4.736a9.245 9.245 0 0 1-3.405 3.4c-1.436.833-3.021 1.25-4.755 1.25-1.733 0-3.32-.417-4.76-1.25a9.232 9.232 0 0 1-3.412-3.4c-.834-1.432-1.25-3.01-1.25-4.736Zm4.483 0c0 .9.218 1.723.656 2.47a4.862 4.862 0 0 0 1.79 1.777 4.889 4.889 0 0 0 2.494.656c.908 0 1.738-.218 2.49-.656a4.876 4.876 0 0 0 1.782-1.777 4.8 4.8 0 0 0 .656-2.47 4.89 4.89 0 0 0-.656-2.495 4.833 4.833 0 0 0-1.79-1.79 4.866 4.866 0 0 0-2.482-.656c-.908 0-1.74.22-2.495.657a4.833 4.833 0 0 0-1.79 1.789 4.89 4.89 0 0 0-.655 2.495Z" fill="#17177f" fill-rule="evenodd" data-name="Path 405"/><path d="M364.102 2772.876c.026.231-.024.405-.148.52-.124.116-.301.173-.532.173h-3.389c-.214 0-.374-.05-.481-.154-.107-.102-.174-.27-.2-.5l-1.078-10.32-2.849 10.076c-.068.24-.154.406-.257.5-.102.095-.256.142-.462.142h-3.44c-.205 0-.36-.045-.462-.135-.103-.09-.188-.259-.257-.507l-2.836-10.05-1.091 10.294c-.026.23-.094.398-.206.5-.11.103-.273.154-.487.154h-3.376c-.231 0-.409-.057-.533-.173-.124-.115-.173-.289-.147-.52l2.066-17.418c.052-.444.274-.667.668-.667h4.35c.412 0 .673.214.784.642l3.247 11.32 3.248-11.32c.051-.214.139-.375.263-.482.124-.106.297-.16.52-.16h4.35c.395 0 .617.223.668.667l2.067 17.418Z" fill="#17177f" fill-rule="evenodd" data-name="Path 406"/><path d="M388.393 2772.876c.026.231-.023.405-.147.52-.124.116-.302.173-.533.173h-3.389c-.214 0-.374-.05-.48-.154-.108-.102-.174-.27-.2-.5l-1.078-10.32-2.85 10.076c-.068.24-.154.406-.256.5-.103.095-.257.142-.462.142h-3.44c-.206 0-.36-.045-.462-.135-.103-.09-.189-.259-.257-.507l-2.837-10.05-1.09 10.294c-.026.23-.095.398-.206.5-.111.103-.274.154-.488.154h-3.376c-.23 0-.408-.057-.532-.173-.124-.115-.174-.289-.148-.52l2.067-17.418c.05-.444.273-.667.667-.667h4.351c.411 0 .672.214.783.642l3.248 11.32 3.247-11.32c.052-.214.14-.375.263-.482.124-.106.298-.16.52-.16h4.351c.394 0 .616.223.668.667l2.066 17.418Z" fill="#17177f" fill-rule="evenodd" data-name="Path 407"/></g></g></g></svg>