<svg xmlns="http://www.w3.org/2000/svg" width="455.593" height="151.87" viewBox="732 2593 455.593 151.87"><g data-name="Group 60"><g data-name="Group 41"><path d="m750.874 2669.087-2.454 2.476c-.079.079-.101.065-.067-.042a.631.631 0 0 0 .019-.185c-.05-16.457-.055-32.914-.014-49.371.002-.97.03-1.695.085-2.173.359-3.162 1.739-5.788 4.14-7.876a11.584 11.584 0 0 1 6.286-2.815c.478-.06 1.195-.093 2.15-.1 1.908-.012 4.655-.018 8.242-.018 27.687 0 55.375-.006 83.062-.017 1.727 0 3.154.014 4.282.044a11.426 11.426 0 0 1 3.234.567c3.033.994 5.33 2.901 6.893 5.72.885 1.595 1.379 3.364 1.482 5.307.035.663.052 2.133.05 4.41l-.039 91.496c-.001 3.518-1.188 6.47-3.56 8.858-1.922 1.935-4.242 3.08-6.96 3.434-.5.065-1.216.098-2.15.098h-49.282c-.05 0-.056-.017-.022-.052l46.021-46.505a.064.064 0 0 0 0-.09l-11.69-11.8a.058.058 0 0 0-.084 0l-57.792 58.387a.201.201 0 0 1-.143.06H768.29c-.43 0-.677-.193-.74-.58-.44-2.698.115-5.066 1.662-7.105.238-.311.72-.848 1.45-1.609 7.511-7.846 14.12-14.652 19.828-20.42l27.441-27.73a.07.07 0 0 0 .021-.051.073.073 0 0 0-.02-.051l-11.853-11.978a.077.077 0 0 0-.11 0l-45.605 46.084-.559.578a19.45 19.45 0 0 1-2.431 2.125c-.636.468-1.248.846-1.836 1.133a12.644 12.644 0 0 1-3.859 1.158c-.72.099-1.339.164-1.855.194-.378.024-.6.033-.665.028a1.08 1.08 0 0 1-.638-.254.437.437 0 0 1-.16-.347l-.001-14.597c0-.035.014-.069.039-.094l34.847-35.214a.057.057 0 0 0 .016-.04.055.055 0 0 0-.016-.04l-11.685-11.807a.054.054 0 0 0-.039-.017.056.056 0 0 0-.04.017 9327.892 9327.892 0 0 1-20.609 20.804Z" fill="#f72323" fill-rule="evenodd" data-name="Path 259"/><g data-name="Group 40"><path d="M851.04 2594.667c1.762 1.23 2.956 2.879 3.581 4.944.413 1.362.814 2.728 1.205 4.097a.043.043 0 0 1-.041.055h-48.717c-.101 0-.103-.014-.006-.042a35160.95 35160.95 0 0 1 35.226-10.094c.971-.278 1.685-.45 2.14-.518 2.411-.357 4.615.163 6.611 1.558Z" fill="#17177f" fill-rule="evenodd" data-name="Path 258"/><path d="M733.682 2626.95a8.95 8.95 0 0 1 3.646-3.1c.435-.205 1.129-.445 2.079-.723 1.012-.295 2.04-.59 3.083-.882a.07.07 0 0 1 .09.069l.006 47.965c0 .114-.016.116-.048.007-3.28-11.394-6.544-22.782-9.794-34.164-.315-1.105-.503-1.815-.564-2.13-.486-2.528.014-4.876 1.502-7.042Z" fill="#17177f" fill-rule="evenodd" data-name="Path 260"/><path d="M882.228 2711.868c-1.145 1.288-2.465 2.153-3.96 2.594-1.364.403-2.73.8-4.097 1.191a.043.043 0 0 1-.038-.007.044.044 0 0 1-.017-.034v-47.56c0-.033 0-.068-.002-.104-.022-.476.013-.509.103-.1l.02.08c3.314 11.522 6.616 23.045 9.906 34.573.257.901.413 1.617.466 2.148.276 2.719-.518 5.125-2.38 7.22Z" fill="#17177f" fill-rule="evenodd" data-name="Path 261"/><path d="M764.767 2742.502c-1.071-.929-1.865-2.016-2.383-3.263a14.718 14.718 0 0 1-.574-1.694c-.228-.823-.343-1.238-.346-1.245-.205-.702-.404-1.39-.595-2.063a.1.1 0 0 1 .096-.128c15.394 0 30.726-.004 45.995-.012.854 0 1.731.013 2.63.042.062.002.063.012.004.029l-35.042 10.05c-.98.28-1.694.456-2.139.526-2.854.449-5.403-.299-7.646-2.242Z" fill="#17177f" fill-rule="evenodd" data-name="Path 262"/></g></g><g data-name="Group 42"><g data-name="Group 38"><path d="m920.007 2645.713.157 7.81a.571.571 0 0 0 .582.546l26.843.179a.392.392 0 0 1 .389.388v12.455c0 .23-.188.418-.418.418h-34.303c-3.952 0-6.638-1.337-8.056-4.01-.727-1.369-1.09-3.985-1.09-7.847v-36.49c0-6.611 3.173-9.914 9.52-9.909 11.264.01 22.574.015 33.929.015.23 0 .418.187.418.418v12.522a.5.5 0 0 1-.5.5h-25.955c-.761 0-1.38.549-1.389 1.232l-.052 7.22c0 .207.184.374.41.374l22.46.142c.295.002.576.116.782.316.206.2.32.471.316.752l-.15 12.148c0 .096-.039.187-.11.254a.362.362 0 0 1-.263.097 296.387 296.387 0 0 0-23.132.082.393.393 0 0 0-.388.388Z" fill="#17177f" fill-rule="evenodd" data-name="Path 402"/><path d="M994.182 2640.055c.388.811.582.769.582-.127v-30.136c0-.285.228-.515.508-.515l15.307.044c.21 0 .38.168.38.374l.046 57.255a.526.526 0 0 1-.523.523c-4.147.055-8.39.074-12.73.06-3.037-.01-5.594-.872-7.67-2.584-1.224-1.01-2.68-3.109-4.367-6.295a581.33 581.33 0 0 1-11.118-22.131c-.618-1.31-.926-1.24-.926.209l.044 30.27a.381.381 0 0 1-.373.389l-14.963.12a.388.388 0 0 1-.389-.39v-57.374c0-.253.203-.459.456-.463 5.112-.075 10-.015 14.665.18 2.718.114 5.067 1.311 7.048 3.59 1.16 1.34 2.327 3.222 3.502 5.646a909.57 909.57 0 0 0 1.845 3.793 790.44 790.44 0 0 1 8.676 17.562Z" fill="#17177f" fill-rule="evenodd" data-name="Path 400"/><path d="m1056.597 2623.111-.045 43.957c0 .231-.184.418-.41.418l-14.942-.119a.388.388 0 0 1-.38-.388l-.128-43.591a.72.72 0 0 0-.716-.71l-18.57-.12a.385.385 0 0 1-.389-.38v-12.41c0-.21.178-.38.396-.38l51.558-.135c.212 0 .384.173.389.388l.044 12.544a.5.5 0 0 1-.5.508l-15.941.045a.37.37 0 0 0-.366.373Z" fill="#17177f" fill-rule="evenodd" data-name="Path 398"/><path d="m1121.958 2650.182 11.374 15.762a.39.39 0 0 1-.235.611c-2.36.452-4.685.739-6.972.862-5.188.29-9.47-1.475-12.847-5.294-1.487-1.683-3.845-5.168-7.075-10.454a.862.862 0 0 0-.552-.39 20.217 20.217 0 0 0-6.081-.243.42.42 0 0 0-.383.405l-.118 15.648a.42.42 0 0 1-.42.42h-14.864a.368.368 0 0 1-.368-.368v-57.797c0-.203.165-.368.368-.368h22.558c7.387 0 11.954.26 13.7.78 5.238 1.561 8.781 5.416 10.632 11.566 2.154 7.156 1.786 14.008-1.105 20.555-1.501 3.397-4 6.008-7.494 7.834a.328.328 0 0 0-.168.21.313.313 0 0 0 .05.26Zm-7.392-14.842c1.218-2.008 1.62-4.422 1.208-7.245-.491-3.347-2.1-5.278-4.83-5.794-.25-.049-2.162-.073-5.735-.073h-5.764a.38.38 0 0 0-.383.375l.044 14.673c0 .206.159.375.36.383 2.685.103 5.368.123 8.047.059.06 0 .803.03 2.231.088 2.165.088 3.772-.734 4.822-2.466Z" fill="#17177f" fill-rule="evenodd" data-name="Path 395"/><path d="m1159.825 2631.377 23.147.179c.219 0 .396.17.396.38v12.41c0 .21-.177.381-.396.381l-22.774.127a.804.804 0 0 0-.547.22.682.682 0 0 0-.214.512l.216 7.116c.017.625.552 1.124 1.21 1.127l26.149.172c.317 0 .575.254.575.567l-.038 12.171a.526.526 0 0 1-.53.523h-28.165c-.084 0-1.453.045-4.106.134-2.425.085-4.48-.146-6.168-.694-2.04-.662-3.45-1.964-4.226-3.905-.408-1.02-.632-2.803-.672-5.346a2285.69 2285.69 0 0 1-.261-36.483c.004-3.012.293-5.314.866-6.907.816-2.275 2.391-3.738 4.726-4.39a18.663 18.663 0 0 1 5.167-.695c10.951.03 21.923.045 32.914.045.276 0 .5.22.5.493l-.037 12.133a.833.833 0 0 1-.844.814l-26.111.18c-.517-.001-.94.392-.956.888l-.21 7.474c-.003.202.17.37.389.374Z" fill="#17177f" fill-rule="evenodd" data-name="Path 393"/></g><path d="M906.741 2728.839c-.51 0-.964-.11-1.361-.331a2.408 2.408 0 0 1-.933-.914 2.625 2.625 0 0 1-.337-1.339c0-.51.107-.959.319-1.347.212-.389.506-.693.881-.914.376-.22.807-.331 1.293-.331.48 0 .892.107 1.237.322.345.214.608.51.79.886.18.376.272.81.272 1.3 0 .119-.04.217-.12.294a.42.42 0 0 1-.305.117h-3.72v-.746h3.692l-.378.26a2.013 2.013 0 0 0-.185-.834 1.412 1.412 0 0 0-.498-.583 1.387 1.387 0 0 0-.785-.214c-.35 0-.65.078-.9.233-.25.156-.439.368-.568.639-.13.27-.194.577-.194.918 0 .342.077.647.231.914.154.268.366.479.637.634a1.84 1.84 0 0 0 1.519.126c.2-.071.361-.154.484-.247a.52.52 0 0 1 .3-.107.4.4 0 0 1 .282.098c.104.093.16.196.166.308.006.112-.043.208-.148.289-.209.168-.469.304-.78.41-.31.106-.608.159-.89.159Zm17.48.056a3.454 3.454 0 0 1-2.533-1.078 3.69 3.69 0 0 1-.757-1.189 3.93 3.93 0 0 1-.273-1.473c0-.522.091-1.009.273-1.46.181-.45.434-.845.757-1.184.323-.339.7-.604 1.13-.797.431-.193.899-.29 1.404-.29.474 0 .881.063 1.223.187.341.125.685.33 1.03.616.048.037.087.076.115.116.027.04.046.081.055.122.01.04.014.088.014.144a.385.385 0 0 1-.125.294.483.483 0 0 1-.3.13.482.482 0 0 1-.341-.116 2.735 2.735 0 0 0-.707-.457c-.243-.106-.564-.159-.964-.159-.363 0-.705.075-1.025.224-.32.15-.602.355-.845.616a2.845 2.845 0 0 0-.567.909 2.998 2.998 0 0 0-.204 1.105c0 .398.068.77.204 1.114.135.345.324.649.567.91.243.26.525.464.845.61.32.147.662.22 1.025.22.314 0 .61-.055.89-.164.28-.108.55-.26.808-.452.111-.08.22-.116.328-.107.108.01.199.053.272.13.074.078.111.185.111.322a.469.469 0 0 1-.037.182.51.51 0 0 1-.11.163c-.333.268-.688.47-1.067.606a3.49 3.49 0 0 1-1.195.206Zm16.567-.056c-.498 0-.938-.11-1.32-.331a2.388 2.388 0 0 1-.9-.914 2.683 2.683 0 0 1-.328-1.339c0-.51.11-.959.328-1.347.218-.389.518-.693.9-.914.382-.22.822-.331 1.32-.331.492 0 .93.11 1.311.331.382.22.682.525.9.914.219.388.328.838.328 1.347 0 .504-.108.95-.323 1.339a2.355 2.355 0 0 1-.896.914c-.381.22-.821.33-1.32.33Zm0-.84c.32 0 .603-.074.85-.224.246-.149.438-.354.576-.615.139-.261.208-.563.208-.905 0-.341-.07-.645-.208-.909a1.55 1.55 0 0 0-.577-.62 1.606 1.606 0 0 0-.849-.224c-.32 0-.603.075-.85.224-.245.15-.44.356-.58.62a1.896 1.896 0 0 0-.213.91c0 .341.07.643.212.904s.336.466.582.615c.246.15.53.224.85.224Zm21.367.812a.454.454 0 0 1-.337-.136.464.464 0 0 1-.134-.34v-2.667c0-.392-.095-.682-.286-.872-.19-.19-.44-.284-.748-.284-.32 0-.583.112-.79.335-.205.224-.308.51-.308.858h-.767c0-.404.087-.76.259-1.068a1.85 1.85 0 0 1 .725-.722c.31-.174.666-.261 1.066-.261.35 0 .661.077.932.233.271.155.482.384.633.685.15.302.226.667.226 1.096v2.667c0 .137-.043.25-.13.34a.45.45 0 0 1-.341.136Zm-6.158 0a.454.454 0 0 1-.337-.136.464.464 0 0 1-.133-.34v-4.15a.46.46 0 0 1 .133-.345.463.463 0 0 1 .337-.13.46.46 0 0 1 .342.13.47.47 0 0 1 .13.345v4.15c0 .137-.044.25-.13.34a.45.45 0 0 1-.342.136Zm3.084 0a.454.454 0 0 1-.337-.136.464.464 0 0 1-.134-.34v-2.667c0-.392-.095-.682-.286-.872-.191-.19-.44-.284-.748-.284-.32 0-.585.112-.794.335-.21.224-.314.51-.314.858h-.581c0-.404.08-.76.24-1.068.16-.307.381-.548.664-.722.283-.174.607-.261.97-.261.35 0 .661.077.932.233.27.155.482.384.632.685.151.302.227.667.227 1.096v2.667c0 .137-.043.25-.13.34a.45.45 0 0 1-.341.136Zm22.53 0a.455.455 0 0 1-.337-.136.464.464 0 0 1-.134-.34v-2.667c0-.392-.095-.682-.286-.872-.191-.19-.44-.284-.748-.284-.32 0-.583.112-.79.335-.205.224-.309.51-.309.858h-.766c0-.404.086-.76.259-1.068a1.85 1.85 0 0 1 .724-.722c.311-.174.667-.261 1.067-.261.35 0 .661.077.932.233.27.155.482.384.632.685.151.302.227.667.227 1.096v2.667a.45.45 0 0 1-.47.476Zm-6.158 0a.455.455 0 0 1-.337-.136.464.464 0 0 1-.134-.34v-4.15a.46.46 0 0 1 .134-.345.463.463 0 0 1 .337-.13.46.46 0 0 1 .342.13.47.47 0 0 1 .13.345v4.15c0 .137-.044.25-.13.34a.45.45 0 0 1-.342.136Zm3.084 0a.455.455 0 0 1-.337-.136.464.464 0 0 1-.134-.34v-2.667c0-.392-.096-.682-.286-.872-.191-.19-.44-.284-.748-.284-.32 0-.585.112-.794.335-.21.224-.314.51-.314.858h-.581c0-.404.08-.76.24-1.068.16-.307.381-.548.664-.722.283-.174.606-.261.97-.261.35 0 .661.077.932.233.27.155.481.384.632.685.151.302.226.667.226 1.096v2.667a.45.45 0 0 1-.47.476Zm18.274.028c-.51 0-.965-.11-1.362-.331a2.407 2.407 0 0 1-.932-.914 2.625 2.625 0 0 1-.337-1.339c0-.51.106-.959.318-1.347.213-.389.507-.693.882-.914.375-.22.806-.331 1.292-.331.48 0 .893.107 1.237.322.345.214.608.51.79.886.181.376.272.81.272 1.3 0 .119-.04.217-.12.294a.42.42 0 0 1-.305.117h-3.72v-.746h3.693l-.379.26a2.012 2.012 0 0 0-.184-.834 1.412 1.412 0 0 0-.499-.583 1.387 1.387 0 0 0-.785-.214c-.35 0-.65.078-.9.233-.249.156-.438.368-.567.639-.13.27-.194.577-.194.918 0 .342.077.647.23.914.154.268.367.479.638.634a1.84 1.84 0 0 0 1.518.126c.2-.071.362-.154.485-.247a.52.52 0 0 1 .3-.107.401.401 0 0 1 .281.098c.105.093.16.196.166.308.007.112-.043.208-.147.289-.21.168-.47.304-.78.41-.311.106-.608.159-.891.159Zm14.61-3.227c0-.373.09-.707.272-1.002a2.027 2.027 0 0 1 1.75-.965c.368 0 .644.06.825.181.182.121.25.266.208.434a.359.359 0 0 1-.106.2.365.365 0 0 1-.18.089.541.541 0 0 1-.222-.01c-.394-.08-.748-.086-1.062-.018-.313.068-.561.196-.743.382a.974.974 0 0 0-.272.709h-.47Zm.008 3.19c-.147 0-.261-.04-.341-.117-.08-.078-.12-.195-.12-.35v-4.168c0-.15.04-.265.12-.345.08-.081.194-.122.341-.122.154 0 .27.04.347.117.077.078.115.194.115.35v4.168c0 .15-.038.264-.115.345-.077.08-.193.121-.347.121Zm16.742.037a2.54 2.54 0 0 1-1.315-.34 2.446 2.446 0 0 1-.905-.924 2.646 2.646 0 0 1-.328-1.32c0-.503.108-.95.323-1.342.216-.392.511-.698.887-.919.375-.22.806-.331 1.292-.331.363 0 .696.07.997.21.302.14.572.35.812.63.087.099.117.201.093.307a.486.486 0 0 1-.203.28.348.348 0 0 1-.287.06.561.561 0 0 1-.286-.163 1.477 1.477 0 0 0-1.126-.485c-.314 0-.59.073-.83.22-.24.146-.429.35-.564.61a1.98 1.98 0 0 0-.203.923c0 .336.07.635.208.896.138.26.33.468.577.62.246.152.532.228.858.228.216 0 .405-.026.568-.079.163-.053.312-.135.448-.247.098-.08.2-.126.304-.135.105-.01.197.02.277.088a.447.447 0 0 1 .176.294.347.347 0 0 1-.111.294c-.443.416-.997.625-1.662.625Zm16.428 0c-.51 0-.965-.11-1.362-.331a2.407 2.407 0 0 1-.932-.914 2.625 2.625 0 0 1-.337-1.339c0-.51.106-.959.319-1.347.212-.389.506-.693.881-.914.376-.22.806-.331 1.293-.331.48 0 .892.107 1.237.322.344.214.607.51.789.886.182.376.272.81.272 1.3 0 .119-.04.217-.12.294a.42.42 0 0 1-.304.117h-3.72v-.746h3.692l-.378.26a2.013 2.013 0 0 0-.185-.834 1.412 1.412 0 0 0-.499-.583 1.387 1.387 0 0 0-.784-.214c-.351 0-.651.078-.9.233-.25.156-.439.368-.568.639-.13.27-.194.577-.194.918 0 .342.077.647.23.914.155.268.367.479.638.634a1.84 1.84 0 0 0 1.518.126c.2-.071.362-.154.485-.247a.52.52 0 0 1 .3-.107.401.401 0 0 1 .282.098c.104.093.16.196.166.308.006.112-.043.208-.148.289-.21.168-.47.304-.78.41-.31.106-.608.159-.89.159Zm28.793-.038a.462.462 0 0 1-.341-.14.471.471 0 0 1-.139-.345v-6.313a.467.467 0 0 1 .48-.485h1.847c.461 0 .87.103 1.227.308.357.205.636.49.836.853.2.364.3.782.3 1.254 0 .454-.1.858-.3 1.213-.2.354-.479.63-.836.83a2.48 2.48 0 0 1-1.227.298h-1.367v2.042a.48.48 0 0 1-.133.345.458.458 0 0 1-.347.14Zm.48-3.422h1.367c.283 0 .532-.062.747-.187.216-.124.385-.295.508-.513a1.49 1.49 0 0 0 .185-.746c0-.298-.062-.56-.185-.788a1.389 1.389 0 0 0-.508-.536 1.414 1.414 0 0 0-.747-.196h-1.367v2.966Zm16.696 3.422c-.27 0-.51-.074-.72-.224a1.483 1.483 0 0 1-.49-.61 2.136 2.136 0 0 1-.175-.89v-5.093c0-.136.043-.248.13-.335a.448.448 0 0 1 .332-.13c.135 0 .246.043.332.13.086.087.13.199.13.335v5.092c0 .23.043.42.129.569.086.15.197.224.332.224h.23c.124 0 .224.043.3.13a.488.488 0 0 1 .116.336.401.401 0 0 1-.175.336.738.738 0 0 1-.452.13h-.019Zm14.194.038c-.45 0-.852-.114-1.21-.34a2.41 2.41 0 0 1-.844-.924 2.771 2.771 0 0 1-.31-1.32c0-.49.113-.932.338-1.324.224-.391.529-.7.914-.928.384-.227.816-.34 1.297-.34a2.48 2.48 0 0 1 2.201 1.268c.225.392.337.833.337 1.324h-.36c0 .492-.103.931-.31 1.32a2.41 2.41 0 0 1-.844.923c-.357.227-.76.34-1.21.34Zm.185-.84a1.564 1.564 0 0 0 1.421-.853c.142-.264.213-.561.213-.89 0-.336-.071-.636-.213-.9a1.564 1.564 0 0 0-1.422-.853 1.57 1.57 0 0 0-.835.228 1.64 1.64 0 0 0-.59.625 1.842 1.842 0 0 0-.218.9c0 .329.073.626.217.89.145.264.342.473.591.625.25.152.528.228.836.228Zm2.067.812a.454.454 0 0 1-.337-.136.464.464 0 0 1-.133-.34v-1.427l.175-.988.766.335v2.08c0 .137-.044.25-.134.34a.455.455 0 0 1-.337.136Zm14.508-.01c-.308 0-.584-.079-.83-.238a1.663 1.663 0 0 1-.582-.648 1.978 1.978 0 0 1-.213-.923v-4.448c0-.137.044-.249.13-.336a.447.447 0 0 1 .332-.13c.135 0 .246.043.332.13.087.087.13.2.13.336v4.448c0 .249.067.457.203.625a.618.618 0 0 0 .498.252h.314c.11 0 .205.043.282.13a.488.488 0 0 1 .115.336c0 .137-.05.249-.152.336a.582.582 0 0 1-.393.13h-.166Zm-2.05-4.112a.442.442 0 0 1-.313-.112.367.367 0 0 1-.12-.28c0-.124.04-.224.12-.298a.442.442 0 0 1 .314-.112h2.132c.13 0 .234.037.314.112.08.074.12.174.12.298 0 .112-.04.205-.12.28a.442.442 0 0 1-.314.112h-2.132Zm15.256 4.112a.445.445 0 0 1-.314-.13.452.452 0 0 1-.138-.345v-4.598c0-.447.088-.836.263-1.165.175-.33.42-.586.734-.77a2.12 2.12 0 0 1 1.09-.275c.135 0 .247.04.336.121.09.081.134.184.134.308 0 .118-.045.22-.134.303a.472.472 0 0 1-.337.126 1.079 1.079 0 0 0-1.002.597 1.437 1.437 0 0 0-.142.662v4.69a.47.47 0 0 1-.13.346.484.484 0 0 1-.36.13Zm-.849-4.112a.442.442 0 0 1-.314-.112.367.367 0 0 1-.12-.28c0-.124.04-.224.12-.298a.442.442 0 0 1 .314-.112h2.28c.13 0 .234.037.314.112.08.074.12.174.12.298 0 .112-.04.205-.12.28a.442.442 0 0 1-.314.112h-2.28Zm16.594 4.15c-.498 0-.938-.11-1.32-.331a2.388 2.388 0 0 1-.9-.914 2.683 2.683 0 0 1-.328-1.339c0-.51.11-.959.328-1.347.218-.389.518-.693.9-.914.382-.22.822-.331 1.32-.331.492 0 .93.11 1.31.331.383.22.683.525.901.914.219.388.328.838.328 1.347 0 .504-.108.95-.323 1.339a2.355 2.355 0 0 1-.896.914c-.381.22-.821.33-1.32.33Zm0-.84c.32 0 .603-.074.85-.224.246-.149.438-.354.576-.615.139-.261.208-.563.208-.905 0-.341-.07-.645-.208-.909a1.55 1.55 0 0 0-.577-.62 1.606 1.606 0 0 0-.849-.224c-.32 0-.603.075-.85.224-.245.15-.44.356-.58.62a1.896 1.896 0 0 0-.213.91c0 .341.07.643.212.904s.336.466.582.615c.246.15.529.224.85.224Zm15.191-2.387c0-.373.09-.707.272-1.002a2.027 2.027 0 0 1 1.75-.965c.369 0 .644.06.826.181.181.121.25.266.208.434a.36.36 0 0 1-.107.2.365.365 0 0 1-.18.089.541.541 0 0 1-.221-.01c-.394-.08-.748-.086-1.062-.018-.314.068-.561.196-.743.382a.974.974 0 0 0-.272.709h-.471Zm.01 3.19c-.148 0-.262-.04-.342-.117-.08-.078-.12-.195-.12-.35v-4.168c0-.15.04-.265.12-.345.08-.081.194-.122.341-.122.154 0 .27.04.346.117.077.078.116.194.116.35v4.168c0 .15-.039.264-.116.345-.077.08-.192.121-.346.121Zm21.45.009a.455.455 0 0 1-.338-.136.464.464 0 0 1-.134-.34v-2.667c0-.392-.095-.682-.286-.872-.19-.19-.44-.284-.748-.284-.32 0-.583.112-.789.335-.206.224-.31.51-.31.858h-.765c0-.404.086-.76.258-1.068a1.85 1.85 0 0 1 .725-.722c.31-.174.666-.261 1.066-.261.35 0 .662.077.932.233.271.155.482.384.633.685.15.302.226.667.226 1.096v2.667a.45.45 0 0 1-.47.476Zm-6.158 0a.455.455 0 0 1-.337-.136.464.464 0 0 1-.134-.34v-4.15a.46.46 0 0 1 .134-.345.463.463 0 0 1 .337-.13.46.46 0 0 1 .341.13.47.47 0 0 1 .13.345v4.15c0 .137-.044.25-.13.34a.45.45 0 0 1-.341.136Zm3.083 0a.454.454 0 0 1-.337-.136.464.464 0 0 1-.134-.34v-2.667c0-.392-.095-.682-.286-.872-.19-.19-.44-.284-.748-.284-.32 0-.584.112-.794.335-.209.224-.314.51-.314.858h-.581c0-.404.08-.76.24-1.068.16-.307.382-.548.665-.722.283-.174.606-.261.969-.261.35 0 .661.077.932.233.271.155.482.384.633.685.15.302.226.667.226 1.096v2.667a.45.45 0 0 1-.47.476Z" fill="#17177f" fill-rule="evenodd" data-name="Path 403"/><g data-name="Group 39"><path d="m1118.44 2701.615 6.797 9.418a.233.233 0 0 1-.14.365c-1.411.27-2.8.441-4.167.514-3.1.173-5.658-.88-7.676-3.162-.888-1.006-2.297-3.088-4.227-6.247a.515.515 0 0 0-.33-.233 12.08 12.08 0 0 0-3.633-.145.25.25 0 0 0-.229.242l-.07 9.35a.25.25 0 0 1-.25.25h-8.882a.22.22 0 0 1-.22-.22v-34.532a.22.22 0 0 1 .22-.22h13.478c4.413 0 7.142.155 8.186.466 3.129.932 5.246 3.236 6.352 6.91 1.287 4.276 1.067 8.37-.66 12.282-.897 2.03-2.39 3.59-4.478 4.68a.196.196 0 0 0-.1.126.187.187 0 0 0 .03.156Zm-4.416-8.868c.728-1.2.968-2.642.722-4.329-.294-2-1.255-3.154-2.886-3.461-.15-.03-1.292-.044-3.427-.044h-3.444c-.126 0-.229.1-.229.224l.027 8.767c0 .123.095.224.215.228a77.32 77.32 0 0 0 4.808.036c.035 0 .48.017 1.333.052 1.293.053 2.254-.438 2.881-1.473Z" fill="#17177f" fill-rule="evenodd" data-name="Path 409"/><path d="m1075.041 2690.361 13.813.107c.13 0 .236.102.236.228v7.405a.232.232 0 0 1-.236.227l-13.59.076a.48.48 0 0 0-.326.13.406.406 0 0 0-.128.306l.129 4.246c.01.373.33.671.722.673l15.603.103a.34.34 0 0 1 .343.338l-.022 7.263a.314.314 0 0 1-.317.312h-16.806c-.05 0-.867.026-2.45.08-1.447.05-2.674-.088-3.68-.414-1.218-.396-2.06-1.172-2.522-2.33-.244-.61-.378-1.673-.401-3.19-.11-7.257-.162-14.514-.156-21.77.003-1.798.175-3.171.517-4.122.487-1.357 1.427-2.23 2.82-2.62a11.137 11.137 0 0 1 3.083-.414c6.535.018 13.081.027 19.64.027.165 0 .299.131.299.294l-.023 7.24a.497.497 0 0 1-.503.486l-15.581.106a.56.56 0 0 0-.57.53l-.125 4.46c-.003.121.101.22.231.223Z" fill="#17177f" fill-rule="evenodd" data-name="Path 390"/><path d="m1171.024 2690.361 13.812.107c.13 0 .236.102.236.228v7.405a.232.232 0 0 1-.236.227l-13.59.076a.48.48 0 0 0-.326.13.406.406 0 0 0-.128.306l.13 4.246c.01.373.329.671.721.673l15.603.103a.34.34 0 0 1 .343.338l-.022 7.263a.314.314 0 0 1-.316.312h-16.806c-.051 0-.868.026-2.451.08-1.447.05-2.673-.088-3.68-.414-1.218-.396-2.059-1.172-2.522-2.33-.244-.61-.377-1.673-.401-3.19-.11-7.257-.162-14.514-.156-21.77.003-1.798.175-3.171.517-4.122.487-1.357 1.427-2.23 2.82-2.62a11.137 11.137 0 0 1 3.083-.414c6.535.018 13.082.027 19.64.027.165 0 .299.131.299.294l-.022 7.24a.497.497 0 0 1-.504.486l-15.58.106a.56.56 0 0 0-.571.53l-.125 4.46c-.002.121.101.22.232.223Z" fill="#17177f" fill-rule="evenodd" data-name="Path 389"/><path d="M1151.938 2701.92c.353-.23.697-.345 1.034-.345.4 0 .69.138.874.413l3.426 5.197c.077.123.116.26.116.414 0 .199-.058.395-.173.586-.115.192-.28.364-.494.517-1.242.936-2.81 1.713-4.703 2.334-1.893.621-3.644.932-5.254.932-3.25 0-6.223-.775-8.92-2.323a17.274 17.274 0 0 1-6.405-6.334c-1.57-2.675-2.356-5.615-2.356-8.818 0-3.22.785-6.166 2.356-8.841a17.275 17.275 0 0 1 6.404-6.335c2.698-1.548 5.672-2.322 8.921-2.322 1.564 0 3.304.318 5.22.954 1.916.636 3.549 1.445 4.898 2.426.367.276.551.605.551.988 0 .2-.053.376-.16.53l-3.496 5.127c-.183.26-.46.39-.827.39-.307 0-.606-.099-.897-.298a9.747 9.747 0 0 0-2.598-1.38c-.981-.352-1.878-.529-2.69-.529-1.717 0-3.289.414-4.714 1.242a9.282 9.282 0 0 0-3.392 3.368c-.835 1.418-1.253 2.978-1.253 4.68 0 1.686.418 3.234 1.253 4.644a9.222 9.222 0 0 0 3.392 3.346c1.425.82 2.997 1.23 4.713 1.23.798 0 1.679-.169 2.645-.506.965-.337 1.808-.766 2.53-1.288Z" fill="#17177f" fill-rule="evenodd" data-name="Path 391"/><path d="M926.966 2701.92c.352-.23.697-.345 1.035-.345.398 0 .69.138.873.413l3.426 5.197c.077.123.115.26.115.414 0 .199-.057.395-.172.586-.115.192-.28.364-.495.517-1.241.936-2.809 1.713-4.702 2.334-1.893.621-3.644.932-5.254.932-3.25 0-6.223-.775-8.921-2.323a17.272 17.272 0 0 1-6.404-6.334c-1.571-2.675-2.357-5.615-2.357-8.818 0-3.22.786-6.166 2.357-8.841a17.273 17.273 0 0 1 6.404-6.335c2.698-1.548 5.672-2.322 8.921-2.322 1.564 0 3.304.318 5.22.954 1.916.636 3.548 1.445 4.897 2.426.368.276.552.605.552.988a.9.9 0 0 1-.16.53l-3.496 5.127c-.184.26-.46.39-.827.39-.307 0-.606-.099-.897-.298a9.748 9.748 0 0 0-2.598-1.38c-.982-.352-1.878-.529-2.69-.529-1.718 0-3.289.414-4.714 1.242a9.281 9.281 0 0 0-3.392 3.368c-.835 1.418-1.253 2.978-1.253 4.68 0 1.686.418 3.234 1.253 4.644a9.221 9.221 0 0 0 3.392 3.346c1.425.82 2.996 1.23 4.713 1.23.797 0 1.679-.169 2.645-.506.965-.337 1.808-.766 2.529-1.288Z" fill="#17177f" fill-rule="evenodd" data-name="Path 404"/><path d="M936.262 2694.493c0-3.22.775-6.166 2.323-8.841a17.089 17.089 0 0 1 6.334-6.335c2.675-1.548 5.622-2.322 8.841-2.322 3.204 0 6.143.774 8.818 2.322a17.088 17.088 0 0 1 6.335 6.335c1.548 2.675 2.322 5.622 2.322 8.84 0 3.204-.774 6.136-2.322 8.796a17.167 17.167 0 0 1-6.323 6.311c-2.667 1.548-5.61 2.323-8.83 2.323-3.219 0-6.166-.775-8.84-2.323a17.141 17.141 0 0 1-6.335-6.311c-1.548-2.66-2.323-5.592-2.323-8.795Zm8.324 0c0 1.67.406 3.2 1.219 4.587a9.028 9.028 0 0 0 3.322 3.3c1.403.812 2.947 1.218 4.633 1.218 1.687 0 3.227-.406 4.622-1.219a9.055 9.055 0 0 0 3.311-3.3c.813-1.387 1.219-2.916 1.219-4.586 0-1.687-.406-3.231-1.219-4.634a8.975 8.975 0 0 0-3.322-3.322c-1.403-.812-2.94-1.219-4.61-1.219-1.687 0-3.231.407-4.634 1.219a8.975 8.975 0 0 0-3.322 3.322c-.813 1.403-1.219 2.947-1.219 4.634Z" fill="#17177f" fill-rule="evenodd" data-name="Path 405"/><path d="M1016.33 2710.578c.049.429-.043.75-.273.965-.23.215-.56.322-.99.322h-6.292c-.397 0-.695-.095-.894-.286-.198-.19-.321-.5-.369-.93l-2.002-19.163-5.291 18.71c-.128.446-.286.755-.477.93-.19.175-.477.262-.858.262h-6.388c-.381 0-.667-.083-.858-.25-.19-.167-.35-.48-.477-.941l-5.267-18.663-2.026 19.116c-.048.428-.175.738-.381.93-.207.19-.509.285-.906.285h-6.269c-.429 0-.759-.107-.989-.322-.23-.214-.322-.536-.274-.965l3.837-32.344c.096-.826.509-1.24 1.24-1.24h8.08c.763 0 1.247.398 1.454 1.193l6.03 21.022 6.03-21.022c.095-.398.258-.696.489-.894.23-.199.552-.298.965-.298h8.08c.731 0 1.144.413 1.24 1.24l3.837 32.343Z" fill="#17177f" fill-rule="evenodd" data-name="Path 406"/><path d="M1061.438 2710.578c.048.429-.043.75-.274.965-.23.215-.56.322-.989.322h-6.292c-.397 0-.695-.095-.894-.286-.199-.19-.322-.5-.37-.93l-2.002-19.163-5.29 18.71c-.128.446-.287.755-.478.93-.19.175-.476.262-.858.262h-6.387c-.382 0-.668-.083-.858-.25-.191-.167-.35-.48-.477-.941l-5.268-18.663-2.026 19.116c-.047.428-.174.738-.38.93-.208.19-.51.285-.907.285h-6.268c-.43 0-.759-.107-.99-.322-.23-.214-.321-.536-.273-.965l3.837-32.344c.095-.826.508-1.24 1.24-1.24h8.08c.762 0 1.247.398 1.453 1.193l6.03 21.022 6.03-21.022c.096-.398.259-.696.49-.894.23-.199.551-.298.965-.298h8.08c.73 0 1.144.413 1.239 1.24l3.837 32.343Z" fill="#17177f" fill-rule="evenodd" data-name="Path 407"/></g></g></g></svg>