<svg xmlns="http://www.w3.org/2000/svg" width="227.923" height="226.74" viewBox="1426.038 2556 227.923 226.74"><g data-name="Group 61"><g data-name="Group 41"><path d="M1454.216 2669.597c-1.221 1.23-2.443 2.462-3.664 3.696-.118.118-.151.098-.1-.062a.943.943 0 0 0 .027-.276c-.074-24.57-.08-49.14-.02-73.71.004-1.45.046-2.53.127-3.245.536-4.721 2.596-8.64 6.18-11.76 2.704-2.352 5.832-3.752 9.386-4.201.714-.09 1.784-.14 3.209-.15 2.849-.018 6.951-.027 12.306-.027 41.337 0 82.674-.008 124.01-.025 2.578 0 4.71.021 6.394.065a17.063 17.063 0 0 1 4.828.847c4.528 1.485 7.958 4.331 10.291 8.54 1.321 2.382 2.059 5.023 2.212 7.924.053.989.078 3.183.076 6.582l-.058 136.603c-.003 5.253-1.775 9.661-5.316 13.226-2.87 2.889-6.334 4.598-10.392 5.127-.746.097-1.815.146-3.21.146h-73.577c-.073 0-.084-.026-.032-.078l68.709-69.431a.095.095 0 0 0 0-.134l-17.455-17.617a.087.087 0 0 0-.124 0l-86.283 87.17a.3.3 0 0 1-.214.09h-21.307c-.642 0-1.01-.288-1.105-.865-.656-4.029.171-7.565 2.482-10.609.354-.464 1.075-1.265 2.164-2.402 11.215-11.713 21.082-21.876 29.603-30.487l40.97-41.402a.105.105 0 0 0 .031-.075.108.108 0 0 0-.031-.076l-17.696-17.882a.115.115 0 0 0-.164 0l-68.087 68.802c-.008.01-.287.297-.835.863a29.036 29.036 0 0 1-3.63 3.173c-.949.699-1.862 1.263-2.74 1.692-1.78.869-3.7 1.445-5.762 1.728a36.405 36.405 0 0 1-2.77.29c-.564.035-.895.049-.992.041a1.613 1.613 0 0 1-.952-.379.653.653 0 0 1-.24-.518l-.002-21.793c0-.052.021-.102.058-.14l52.027-52.574a.086.086 0 0 0 .024-.06.082.082 0 0 0-.024-.059l-17.445-17.629a.08.08 0 0 0-.059-.024.084.084 0 0 0-.059.024 13922.91 13922.91 0 0 1-30.77 31.061Z" fill="#f72323" fill-rule="evenodd" data-name="Path 259"/><g data-name="Group 40"><path d="M1603.761 2558.488c2.632 1.838 4.415 4.299 5.348 7.381a407.092 407.092 0 0 1 1.798 6.118.064.064 0 0 1-.06.083h-72.735c-.15 0-.154-.021-.008-.063 17.515-5.03 35.045-10.053 52.591-15.072 1.45-.414 2.516-.672 3.195-.773 3.6-.532 6.89.244 9.871 2.326Z" fill="#17177f" fill-rule="evenodd" data-name="Path 258"/><path d="M1428.548 2606.687c1.404-2.045 3.218-3.588 5.443-4.629.65-.305 1.686-.665 3.105-1.08 1.51-.44 3.045-.879 4.602-1.315a.105.105 0 0 1 .134.102l.01 71.612c0 .17-.024.173-.071.01-4.897-17.01-9.771-34.013-14.623-51.007-.47-1.65-.751-2.71-.842-3.18-.726-3.774.021-7.279 2.242-10.513Z" fill="#17177f" fill-rule="evenodd" data-name="Path 260"/><path d="M1650.326 2733.469c-1.71 1.922-3.68 3.213-5.912 3.872a780.61 780.61 0 0 1-6.118 1.779.064.064 0 0 1-.082-.061v-71.009l-.003-.154c-.032-.71.02-.76.154-.148l.03.12c4.948 17.2 9.878 34.405 14.79 51.615.384 1.346.616 2.415.696 3.208.411 4.059-.774 7.651-3.555 10.778Z" fill="#17177f" fill-rule="evenodd" data-name="Path 261"/><path d="M1474.957 2779.204c-1.599-1.386-2.784-3.01-3.556-4.87a22.008 22.008 0 0 1-.857-2.53l-.517-1.86a356.34 356.34 0 0 1-.888-3.08.15.15 0 0 1 .143-.19c22.983 0 45.873-.006 68.67-.018 1.274-.001 2.584.02 3.927.063.091.003.093.017.005.042l-52.318 15.004c-1.464.42-2.528.683-3.193.787-4.261.67-8.067-.446-11.416-3.348Z" fill="#17177f" fill-rule="evenodd" data-name="Path 262"/></g></g></g></svg>