<svg viewBox="0 0 105 115" fill="none" xmlns="http://www.w3.org/2000/svg">
	    <style>
  @keyframes pulse {
  0% {
    transform: scale(1);
  }
  50% {
    transform: scale(1.2);
  }
  100% {
    transform: scale(1);
  }
}

path {
  animation: pulse 2s infinite;
}
  </style>
<path d="M92.2187 69.1046C89.7956 70.8748 86.6469 71.8905 83.3386 71.963L72.2821 72.2097C63.5761 72.4128 55.4506 76.4466 50.4591 83.0196H47.0348C46.5124 83.0196 46.0771 83.4549 46.0771 83.9773V86.0667C46.0771 102.013 59.049 114.999 75.0099 114.999H75.5758C91.5222 114.999 104.509 102.028 104.509 86.0667V83.9773C104.509 83.4549 104.073 83.0196 103.551 83.0196H101.955C100.736 82.7439 97.747 81.7282 97.2101 79.9435C96.8764 78.8262 97.5148 77.4333 99.1254 75.8082C100.823 74.0815 101.679 72.1662 101.65 70.1203C101.621 66.9281 99.4446 64.1567 97.6454 62.401C97.1376 61.9077 96.3976 61.8206 95.7736 62.1688C95.1787 62.5026 94.8885 63.17 95.0336 63.823C95.4689 65.6512 94.5113 67.436 92.2187 69.1191V69.1046ZM101.853 84.9494H102.593V86.0812C102.593 100.983 90.4775 113.099 75.5758 113.099H75.0099C60.1082 113.099 47.9925 100.983 47.9925 86.0812V84.9494H101.839H101.853ZM97.0505 64.5485C98.3999 66.0285 99.7058 68.0163 99.7349 70.1493C99.7494 71.6728 99.0819 73.1238 97.747 74.4733C95.614 76.6497 94.816 78.6811 95.3674 80.5094C95.6866 81.5686 96.4266 82.3957 97.2972 83.0341H52.9258C57.6125 77.6074 64.7224 74.3137 72.3256 74.1395L83.3822 73.8929C87.0822 73.8058 90.6226 72.6595 93.3505 70.6571C96.3395 68.4662 97.094 66.2752 97.0505 64.5485Z" fill="#752137"/>
<path d="M58.5269 45.017C60.5293 44.4076 63.3152 44.3496 66.2607 44.3061C70.9038 44.219 76.4466 44.1174 81.293 41.7523C81.322 41.7523 81.3365 41.7233 81.3655 41.7233C82.6279 41.0994 83.8322 40.3303 84.964 39.3727C85.1671 39.1986 85.2832 38.9519 85.2977 38.6762C85.2977 38.415 85.2106 38.1538 85.022 37.9652L83.9628 36.906L93.3797 27.4891C93.757 27.1118 93.757 26.5024 93.3797 26.1396C93.0025 25.7624 92.393 25.7624 92.0303 26.1396L82.6133 35.5566L81.0898 34.033L90.5068 24.6161C90.884 24.2388 90.884 23.6294 90.5068 23.2667C90.1295 22.9039 89.5201 22.8894 89.1573 23.2667L79.7404 32.6836L78.2169 31.1601L87.6338 21.7431C88.011 21.3659 88.011 20.7564 87.6338 20.3937C87.2565 20.0164 86.6471 20.0164 86.2844 20.3937L76.8674 29.8106L75.3439 28.2871L84.7608 18.8702C85.1381 18.4929 85.1381 17.8835 84.7608 17.5207C84.3836 17.1435 83.7742 17.1435 83.4114 17.5207L73.9945 26.9377L72.4709 25.4141L81.8879 15.9972C82.2651 15.6199 82.2651 15.0105 81.8879 14.6478C81.5106 14.2705 80.9012 14.2705 80.5384 14.6478L71.1215 24.0647L69.598 22.5412L79.0149 13.1242C79.3922 12.747 79.3922 12.1376 79.0149 11.7748C78.6376 11.3975 78.0282 11.3975 77.6655 11.7748L68.2485 21.1917L66.725 19.6682L76.1419 10.2513C76.5192 9.874 76.5192 9.26459 76.1419 8.90184C75.7647 8.53909 75.1553 8.52458 74.7925 8.90184L65.3756 18.3188L63.852 16.7952L73.269 7.3783C73.6462 7.00104 73.6462 6.39162 73.269 6.02887C72.8917 5.65162 72.2823 5.65162 71.9195 6.02887L62.5026 15.4458L60.9791 13.9223L70.396 4.50533C70.7733 4.12807 70.7733 3.51866 70.396 3.15591C70.0187 2.77865 69.4093 2.77865 69.0466 3.15591L59.6296 12.5728L58.1061 11.0493L67.523 1.63237C67.9003 1.25511 67.9003 0.645692 67.523 0.282944C67.1458 -0.0943145 66.5364 -0.0943145 66.1736 0.282944L56.7567 9.69988L55.5814 8.52458C55.3927 8.33595 55.1461 8.23438 54.8704 8.24889C54.6092 8.24889 54.348 8.37948 54.1739 8.58262C53.2163 9.71439 52.4472 10.9187 51.8233 12.1666C51.8088 12.1956 51.7943 12.2246 51.7798 12.2536C49.4146 17.0854 49.3131 22.6282 49.226 27.2714C49.168 30.2169 49.1245 33.0028 48.515 35.0052C46.6433 41.1139 44.2926 43.8127 37.7487 50.7049C32.0463 56.712 8.49667 80.9001 1.43033 88.1696C0.240519 89.3884 -0.252818 91.1296 0.12444 92.7982C0.16797 92.9723 0.284049 93.161 0.414638 93.2916C0.545228 93.4221 0.704837 93.5092 0.878956 93.5527C1.2417 93.6398 1.61896 93.6688 1.99622 93.6688C3.30211 93.6688 4.56448 93.161 5.50762 92.2323C12.7916 85.137 37.0087 61.5584 42.9722 55.914C49.8645 49.37 52.5488 47.0194 58.672 45.1476L58.5269 45.017ZM54.8559 10.5124L70.3815 26.0381L82.9035 38.5601C82.3377 38.9809 81.7428 39.3582 81.1333 39.6919L53.7241 12.2681C54.0578 11.6587 54.4351 11.0783 54.8559 10.4979V10.5124ZM4.02761 90.7378C3.41819 91.3327 2.60564 91.6374 1.77857 91.6229C1.76406 90.7959 2.06877 89.9833 2.66368 89.3739C9.74452 82.1044 33.2941 57.9164 39.011 51.8947C45.8887 44.6398 48.2829 41.7668 50.2272 35.4405C50.9237 33.1769 50.9672 30.275 51.0252 27.1843C51.0978 22.9329 51.1994 18.2607 52.868 14.1109L79.3051 40.548C75.1553 42.2166 70.4976 42.3037 66.2317 42.3907C63.141 42.4488 60.2391 42.4923 57.9755 43.1888C51.6492 45.1186 48.7762 47.5128 41.5213 54.405C35.5577 60.0638 11.3261 83.657 4.04212 90.7523L4.02761 90.7378Z" fill="#752137"/>
<path d="M61.4159 35.9491C62.4316 35.9491 63.4473 35.5573 64.2163 34.7883C65.7543 33.2503 65.7543 30.74 64.2163 29.1875C62.6782 27.6494 60.168 27.6494 58.6155 29.1875C57.0774 30.7255 57.0774 33.2357 58.6155 34.7883C59.3845 35.5573 60.4002 35.9491 61.4159 35.9491ZM59.9794 30.5514C60.3712 30.1596 60.8935 29.9565 61.4159 29.9565C61.9382 29.9565 62.4606 30.1596 62.8523 30.5514C63.6504 31.3495 63.6504 32.6408 62.8523 33.4389C62.0543 34.2369 60.7629 34.2369 59.9649 33.4389C59.1668 32.6408 59.1668 31.3495 59.9649 30.5514H59.9794Z" fill="#752137"/>
</svg>
