<svg viewBox="0 0 140 119" fill="none" xmlns="http://www.w3.org/2000/svg">

	<style>
@keyframes fade {
  0% {
    opacity: 1;
  }
  50% {
    opacity: 0.5;
  }
  100% {
    opacity: 1;
  }
}

path {
  animation: fade 2s infinite;
}
	</style>
<path d="M100.447 57.386C97.0475 56.673 94.9416 52.4445 95.8205 48.1662C96.6993 43.8879 100.314 40.8699 103.697 41.583C107.08 42.296 109.202 46.5245 108.324 50.8028C107.445 55.0811 103.83 58.0991 100.447 57.386Z" stroke="#752137" stroke-width="3.26119" stroke-linecap="round" stroke-linejoin="round"/>
<path d="M116.664 73.6204C117.377 77.0198 121.605 79.1258 125.883 78.2469C130.162 77.368 133.18 73.7531 132.467 70.3703C131.754 66.9875 127.525 64.8649 123.247 65.7438C118.969 66.6226 115.951 70.2376 116.664 73.6204Z" stroke="#752137" stroke-width="3.26119" stroke-linecap="round" stroke-linejoin="round"/>
<path d="M97.2627 83.1057L102.072 80.0213L113.895 78.6947C116.631 82.177 121.672 83.9845 126.879 82.9233C133.86 81.4972 138.503 75.3948 137.226 69.3754C135.949 63.3394 129.25 59.6084 122.269 61.0345C115.603 62.4108 111.043 68.0488 111.789 73.8195L98.3074 75.7431" stroke="#752137" stroke-width="3.26119" stroke-linecap="round" stroke-linejoin="round"/>
<path d="M79.5702 94.4983L57.0679 108.958V104.133L90.8131 76.8049L90.9457 76.7883" stroke="#752137" stroke-width="3.26119" stroke-linecap="round" stroke-linejoin="round"/>
<path d="M90.8121 86.4534C91.9203 86.4534 92.8186 85.555 92.8186 84.4469C92.8186 83.3388 91.9203 82.4404 90.8121 82.4404C89.704 82.4404 88.8057 83.3388 88.8057 84.4469C88.8057 85.555 89.704 86.4534 90.8121 86.4534Z" stroke="#752137" stroke-width="3.26119" stroke-linecap="round" stroke-linejoin="round"/>
<path d="M108.54 38.5814C107.28 33.8554 104.461 29.7928 100.464 26.9738H95.639C99.055 29.2953 100.796 32.6781 102.073 36.6247V36.6579C96.9822 36.9564 92.3557 41.2015 91.1286 47.1877C90.0673 52.3946 91.8748 57.4356 95.3571 60.1717L94.0305 71.995L65.0942 117H69.9197L97.2475 83.2378L100.232 62.2611C106.003 63.0073 111.624 58.4471 113.017 51.781C114.112 46.4415 112.205 41.2844 108.54 38.5814Z" stroke="#752137" stroke-width="3.26119" stroke-linecap="round" stroke-linejoin="round"/>
<path d="M82.3755 24.5047V4.04199" stroke="#752137" stroke-width="3.26119" stroke-linecap="round" stroke-linejoin="round"/>
<path d="M37.3698 24.5023C40.2054 24.5023 48.5961 26.7244 56.5059 28.565C59.4244 29.2449 61.4806 31.8317 61.4806 34.8166V40.8526C61.4806 44.9318 60.9831 49.0111 59.9882 52.9743C59.5736 54.6491 59.9384 56.3903 60.9997 57.7334C62.0444 59.0766 63.6695 59.8726 65.3775 59.8726H66.9528C69.4236 59.8726 71.5959 58.2309 72.2757 55.8596C73.6521 51.0507 74.3485 46.1092 74.3485 41.1013V36.1929C74.3485 33.2578 76.3384 30.7041 79.1574 29.9745C86.0557 28.1836 88.8084 24.5023 88.8084 24.5023V8.43397C88.8084 8.43397 83.9829 2 71.1315 2C61.4806 2 46.0921 8.43397 37.3698 8.43397L18.0679 3.60849V29.3278L37.3532 24.5023V11.651" stroke="#752137" stroke-width="3.26119" stroke-linecap="round" stroke-linejoin="round"/>
<path d="M66.3076 59.874V79.1593" stroke="#752137" stroke-width="3.26119" stroke-linecap="round" stroke-linejoin="round"/>
<path d="M61.4807 37.3711H58.2637V40.5881H61.4807" stroke="#752137" stroke-width="3.26119" stroke-linecap="round" stroke-linejoin="round"/>
<path d="M60.6018 50.2219H58.2637V47.0049H61.1158" stroke="#752137" stroke-width="3.26119" stroke-linecap="round" stroke-linejoin="round"/>
<path d="M2 9.21346C6.12902 6.46078 7.73751 12.0325 11.651 9.21346" stroke="#752137" stroke-width="3.26119" stroke-linecap="round" stroke-linejoin="round"/>
<path d="M2 17.2545C6.12902 14.5018 7.73751 20.0735 11.651 17.2545" stroke="#752137" stroke-width="3.26119" stroke-linecap="round" stroke-linejoin="round"/>
<path d="M2 25.2992C6.12902 22.5465 7.73751 28.1182 11.651 25.2992" stroke="#752137" stroke-width="3.26119" stroke-linecap="round" stroke-linejoin="round"/>
<path d="M79.159 29.9756C79.159 29.9756 77.5505 30.9374 66.3076 30.9374" stroke="#752137" stroke-width="3.26119" stroke-linecap="round" stroke-linejoin="round"/>
</svg>
