<svg xmlns="http://www.w3.org/2000/svg" version="1.1" xmlns:xlink="http://www.w3.org/1999/xlink" xmlns:svgjs="http://svgjs.com/svgjs" x="0" y="0" viewBox="0 0 64 64" style="enable-background:new 0 0 512 512" xml:space="preserve" class="">
  <style>
@keyframes bounce {
  0% {
    transform: translateY(0);
  }
  50% {
    transform: translateY(-30px);
  }
  100% {
    transform: translateY(0);
  }
}

path {
  animation: bounce 2s infinite;
}
  </style>
  <g><path d="M31 23h2v16h-2zM31 41h2v4h-2zM23 45c0-2.001.941-3.491 2.031-5.217C26.423 37.58 28 35.083 28 31c0-4.036-.973-9.916-1.014-10.164l-1.973.328c.01.06.987 5.967.987 9.836 0 3.504-1.352 5.645-2.659 7.715C22.189 40.536 21 42.421 21 45c0 5.554 8.203 9.72 8.553 9.895l.895-1.789C28.376 52.067 23 48.586 23 45zM38 31c0-3.869.977-9.776.986-9.836l-1.973-.328C36.973 21.084 36 26.964 36 31c0 4.083 1.577 6.58 2.969 8.783C40.059 41.509 41 42.999 41 45c0 3.586-5.376 7.067-7.447 8.105l.895 1.789C34.797 54.72 43 50.554 43 45c0-2.579-1.189-4.464-2.341-6.285C39.352 36.645 38 34.504 38 31z" fill="#752137" data-original="#000000" class=""></path><path d="M56.35 21.646c-.56-.699-1.088-1.359-1.455-2.094C53 15.764 53 11.832 53 4V3h-4V1H35v2h-6V1H15v2h-4v1c0 7.832 0 11.764-1.895 15.553-.367.734-.896 1.395-1.455 2.094C6.408 23.2 5 24.96 5 28c0 5.166 4.352 7.037 7.528 8.404 1.59.684 3.092 1.329 3.64 2.15.533.8-.108 2.166-.852 3.748-1.18 2.511-2.795 5.95-.098 9.322 1.918 2.396 4.217 3.309 6.651 4.274 3.013 1.194 6.127 2.43 9.33 6.7l.8 1.067.8-1.067c3.203-4.271 6.317-5.506 9.33-6.7 2.435-.966 4.733-1.878 6.651-4.274 2.697-3.372 1.082-6.812-.098-9.322-.743-1.582-1.385-2.948-.852-3.748.548-.821 2.05-1.467 3.64-2.15C54.648 35.037 59 33.166 59 28c0-3.04-1.408-4.8-2.65-6.354zM37 3h10v2H37zM17 3h10v2H17zm-2 2v4h2V7h2v2h2V7h2v2h2V7h2v2h2V5h6v4h2V7h2v2h2V7h2v2h2V7h2v2h2V5h1.971C50.379 14.887 40.95 17 33 17h-2c-4.103 0-17.226-.886-17.967-12zm35.682 29.566c-1.871.805-3.637 1.564-4.514 2.879-1.158 1.738-.211 3.756.706 5.708 1.164 2.479 2.265 4.822.345 7.222-1.586 1.983-3.551 2.763-5.826 3.665-2.883 1.144-6.121 2.428-9.393 6.348-3.271-3.92-6.51-5.204-9.393-6.348-2.275-.902-4.24-1.682-5.826-3.665-1.92-2.399-.819-4.742.345-7.222.917-1.952 1.864-3.97.706-5.708-.877-1.314-2.643-2.074-4.514-2.879C10.212 33.23 7 31.85 7 28c0-2.339 1.074-3.682 2.212-5.104.601-.75 1.221-1.525 1.683-2.449 1.378-2.756 1.852-5.468 2.017-9.292 1.186 1.966 2.9 3.608 5.089 4.87 0 5.841-.004 9.704-2.857 14.46l1.715 1.029c2.963-4.937 3.132-9.053 3.142-14.507C23.028 18.295 26.725 19 31 19h2c4.348 0 8.021-.62 11.001-1.793.014 5.355.215 9.431 3.141 14.308l1.715-1.029C46.046 25.8 46.001 21.977 46 16.28c2.217-1.209 3.931-2.806 5.103-4.78.178 3.645.665 6.274 2.002 8.948.462.924 1.082 1.699 1.683 2.449C55.926 24.318 57 25.661 57 28c0 3.85-3.212 5.23-6.318 6.566z" fill="#752137" data-original="#000000" class=""></path></g></svg>