<svg xmlns="http://www.w3.org/2000/svg" version="1.1" xmlns:xlink="http://www.w3.org/1999/xlink" xmlns:svgjs="http://svgjs.com/svgjs" x="0" y="0" viewBox="0 0 438.6 438.6" style="enable-background:new 0 0 512 512" xml:space="preserve" class="">

  <style>
 @keyframes shake {
  0% {
    transform: translateX(0);
  }
  25% {
    transform: translateX(-10px);
  }
  50% {
    transform: translateX(10px);
  }
  75% {
    transform: translateX(-10px);
  }
  100% {
    transform: translateX(0);
  }
}

path {
  animation: shake 2s infinite;
}
  </style>
	<g><path d="M148.52 336.151c-10.6-15.04-12-37.08-10.72-72.44a4 4 0 0 0-8 0c-1.28 37.12.28 60.44 12.2 77.32l3.04 4c5.8 7.76 10.8 14.52 9.12 23.72a26.24 26.24 0 0 1-20.64 20.92c-14.358 3.005-28.433-6.199-31.437-20.557a26.554 26.554 0 0 1-.563-5.363 33.679 33.679 0 0 1 7.4-18.44c4.24-6.28 12-18 13.04-32 0-2.68 0-7.2-.36-13.48-1.76-35-5.84-116.96 40-171.44a4 4 0 0 0-.469-5.637l-.051-.043a4 4 0 0 0-5.76.56c-47.56 56.84-43.36 140.96-41.56 176.92.28 5.76.52 10.36.36 12.6-.76 11.72-7.6 21.88-11.72 28a41.236 41.236 0 0 0-8.72 22.88c0 19.021 15.419 34.44 34.44 34.44h.12c2.284.01 4.563-.218 6.8-.68a34.32 34.32 0 0 0 27-27.32c2.28-12.64-4.56-21.84-10.56-29.96-1-1.32-2-2.64-2.96-4z" fill="#752137" data-original="#000000" class=""></path><path d="M434.6 292.391h-78.36c-12.283 0-22.24 9.957-22.24 22.24v.64a21.801 21.801 0 0 0 6.24 15.44 45.84 45.84 0 0 1 13.68 32.8c-.268 24.648-19.699 44.816-44.32 46-25.452 1.004-46.898-18.814-47.903-44.266a46.118 46.118 0 0 1 13.023-33.974 22.84 22.84 0 0 0 6.8-16v-.84c-.066-12.22-9.979-22.098-22.2-22.12h-82.76c-12.283 0-22.24 9.957-22.24 22.24v.72a21.801 21.801 0 0 0 6.24 15.44 45.64 45.64 0 0 1 13.64 32.8c-.247 24.641-19.666 44.815-44.28 46-25.427 1.059-46.899-18.695-47.958-44.123a46.077 46.077 0 0 1 13.078-34.117 22.84 22.84 0 0 0 6.8-16v-.84c0-12.283-9.957-22.24-22.24-22.24H4a4 4 0 0 0 0 8v.12h75.6c7.855.022 14.218 6.385 14.24 14.24v.72a15.079 15.079 0 0 1-4.52 10.44c-20.971 21.267-20.732 55.507.535 76.479a54.08 54.08 0 0 0 40.345 15.521c28.904-1.377 51.715-25.064 52-54a53.483 53.483 0 0 0-16-38.48 13.843 13.843 0 0 1-4-9.76v-.84c0-7.865 6.375-14.24 14.24-14.24h82.88c7.855.022 14.218 6.385 14.24 14.24v.64a15.079 15.079 0 0 1-4.52 10.44c-20.943 21.295-20.657 55.535.638 76.478a54.08 54.08 0 0 0 38.082 15.522h2.2c28.895-1.396 51.695-25.073 52-54a53.681 53.681 0 0 0-16-38.48 13.843 13.843 0 0 1-4-9.76v-.84c.022-7.855 6.385-14.218 14.24-14.24h78.4a4 4 0 0 0 0-8zM390.96 22.431a4 4 0 0 0-5.602-.789l-.039.029c-58.68 45.16-72.92 128.2-79 163.64-1 5.72-1.76 10.24-2.4 12.4-3.28 11.32-12 19.72-17.52 24.76a41.12 41.12 0 0 0-13.48 20.4c-4.135 18.611 7.6 37.05 26.211 41.185 2.23.496 4.505.768 6.789.815h.92a34.322 34.322 0 0 0 31.36-20.8c5-12 .36-22.32-3.76-31.52-.68-1.56-1.36-3.08-2-4.6-7.08-16.96-3.6-38.76 5.28-73a4.001 4.001 0 0 0-7.72-2.04c-9.36 36-12.88 59.08-4.96 78.12.68 1.6 1.36 3.16 2.08 4.76 4 8.88 7.36 16.52 3.72 25.16a26.2 26.2 0 0 1-24.72 16 26.801 26.801 0 0 1-20.44-10.2 26.44 26.44 0 0 1-4.96-22.04 33.918 33.918 0 0 1 11.24-16.48c5.52-5.2 15.76-14.88 19.64-28.28.76-2.6 1.52-7.08 2.6-13.28 5.92-34.52 20-115.4 76-158.64a4 4 0 0 0 .761-5.6z" fill="#752137" data-original="#000000" class=""></path></g></svg>