<svg xmlns="http://www.w3.org/2000/svg" version="1.1" xmlns:xlink="http://www.w3.org/1999/xlink" xmlns:svgjs="http://svgjs.com/svgjs" x="0" y="0" viewBox="0 0 512 512" style="enable-background:new 0 0 512 512" xml:space="preserve" class="">
	  <style>
  @keyframes fade {
  0% {
    opacity: 1;
  }
  50% {
    opacity: 0.5;
  }
  100% {
    opacity: 1;
  }
}

path {
  animation: fade 2s infinite;
}
  </style>
	<g><path d="m170 308.6-1.6-20.6c-.1-1.8 1.2-3.4 3-3.5s3.4 1.2 3.5 3l1.6 20.6c.1 1.8-1.2 3.4-3 3.5-1.7.2-3.4-1.2-3.5-3zM170.3 274.2c-1.7 0-3.1-1.3-3.2-3 0-.3-.7-8.8-.7-9.1 0-1.8 1.4-3.3 3.2-3.3 1.8 0 3.3 1.5 3.3 3.3l.7 8.6c.1 1.8-1.2 3.4-3 3.5h-.3zM126.7 204.6c-.1 3.3-.2 6.7-.3 10.2-.1 1.8 1.3 3.3 3.1 3.4 1.7.1 3.3-1.3 3.4-3.1.2-3.6.3-7.1.3-10.4 0-2.3-1.7-3.4-3.4-3.3-1.6.1-3.1 1.2-3.1 3.2zM153.3 140.8c0-1.9-1.7-3.5-3.7-3.2-7.7 1-14.6 5-19.4 11.2-10.4 13.4-4.7 24.7-3.9 35.8.1 1.8 1.8 3.1 3.5 3 1.8-.1 3.1-1.7 3-3.5-1-12.3-5.9-20.4 2.5-31.3 3.7-4.8 9.1-7.9 15.1-8.7 1.6-.3 2.9-1.6 2.9-3.3zM384.9 409.7c-1.8-.1-3.4 1.2-3.5 3l-.7 9.2c-.1 1.8 1.2 3.4 3 3.5s3.4-1.3 3.5-3l.7-9.2c.2-1.8-1.2-3.4-3-3.5zM383.1 436.6c-1.8-.1-3.4 1.2-3.5 3l-3.6 50.6c-.1 1.8 1.2 3.4 3 3.5s3.4-1.3 3.5-3l3.6-50.6c.1-1.8-1.3-3.4-3-3.5z" fill="#752137" data-original="#000000" class=""></path><path d="M373.5 220.7c-5.6-32.1-11.6-90.8-13.9-114.6-.9-9.5-8.9-16.7-18.4-16.7-4.6 0-8.8 1.7-12 4.4V55.1c0-13-10.6-23.6-23.6-23.6-6.7 0-12.8 2.8-17.1 7.3V28.3c0-15.6-12.7-28.3-28.3-28.3s-28.3 12.7-28.3 28.3v2.5c-4.3-4.6-10.5-7.4-17.2-7.4-13.1 0-23.7 10.7-23.7 23.7v140.1c-11.4-21.9-27-27.6-36.2-29-6.3-.9-11.2 5.1-9.6 11.1 4.7 18 1.8 55.7.4 71-1.5 16.2.5 22.3 5.1 87-1.5 23.7 22.4 58.2 42.9 83 9.4 11.4 14.5 25.9 14.5 40.8v57.5c0 1.8 1.5 3.3 3.3 3.3H357c1.7 0 3.1-1.3 3.2-3L376.4 280c1.5-19.9.5-39.8-2.9-59.3zm-159 284.8v-23.6c.3 0 .7.1 1 .1 7.9 0 11.3-8 14.4-15 2.4-5.4 4.9-11.1 8.4-11.1 3.3 0 5.5 4.4 8.5 11.1 3.1 7 6.6 15 14.4 15s11.3-8 14.4-15c2.9-6.7 5.1-11.1 8.5-11.1s5.5 4.4 8.5 11.1c3.1 7 6.6 15 14.4 15s11.3-8 14.4-15c2.9-6.7 5.1-11.1 8.5-11.1 3.3 0 5.5 4.4 8.5 11.1 3.1 7 6.6 15 14.4 15 1 0 2-.2 3-.5l-1.7 24zM370 279.6l-13.7 193.9c-1.5 1.7-2.7 2-3.5 2-3.3 0-5.5-4.4-8.5-11.1-3.1-7-6.6-15-14.4-15s-11.3 8-14.4 15c-2.9 6.7-5.1 11.1-8.5 11.1-3.6 0-6-5.6-8.4-11.1-3.1-7-6.6-15-14.4-15s-11.3 8-14.4 15c-2.9 6.7-5.1 11.1-8.5 11.1-3.6 0-6-5.6-8.4-11.1-3.1-7-6.6-15-14.4-15s-11.3 8-14.4 15c-2.9 6.7-5.1 11.1-8.5 11.1-.4 0-.7-.1-1-.2v-24.1c0-16.4-5.7-32.3-16-44.9-16.2-19.7-43-56-41.4-78.7v-.5c-4.6-63.7-6.6-70.7-5.2-86.1 1.8-19.5 4.2-54.9-.5-73.3-.4-1.6.8-3.3 2.4-3 9.6 1.4 27 8.4 37.1 39.5v59.4c0 1.8 1.5 3.3 3.3 3.3s3.3-1.5 3.3-3.3V47.1c0-9.5 7.7-17.2 17.2-17.2S232 37.6 232 47.1V200c0 1.8 1.5 3.3 3.3 3.3s3.3-1.5 3.3-3.3V28.3c0-12 9.8-21.8 21.8-21.8s21.8 9.8 21.8 21.8v182.9c0 1.8 1.5 3.3 3.3 3.3s3.3-1.5 3.3-3.3V55.1c0-9.4 7.7-17.1 17.1-17.1S323 45.7 323 55.1v165.6c0 1.8 1.5 3.3 3.3 3.3s3.3-1.5 3.3-3.3V107.9c0-6.6 5.4-12 12-12 6.2 0 11.3 4.6 11.9 10.8 2.9 29.6 8.6 83.9 14 115.1 2.9 19 3.9 38.4 2.5 57.8z" fill="#752137" data-original="#000000" class=""></path><path d="M344.6 308.3c8.6-9.7 2.3-25.1-10.7-25.9 4.2-12.3-7.5-24.1-19.8-19.8-.8-12.9-16.2-19.3-25.9-10.7-5.7-11.7-22.3-11.7-28 0-9.7-8.6-25.1-2.2-25.9 10.7-12.3-4.2-24 7.5-19.8 19.8-10.7.7-17.6 11.6-13.5 21.5.7 1.6 1.6 3.1 2.7 4.4-11.6 5.7-11.7 22.3 0 28-8.6 9.7-2.2 25.1 10.7 25.9-4.2 12.3 7.5 24.1 19.8 19.8.8 13 16.2 19.3 25.9 10.7 5.7 11.7 22.3 11.7 28 0 9.7 8.6 25.1 2.2 25.9-10.7 12.3 4.2 24.1-7.6 19.8-19.8 12.9-.8 19.3-16.1 10.7-25.9 11.7-5.7 11.8-22.3.1-28zm-6.9 23.1h-.9c-1.7-.1-3.2 1.3-3.6 2.9-.3 1.6.7 3.3 2.3 3.7.3.1.6.2.8.3 11.1 4.6 4 21.3-6.9 16.8-.3-.1-.5-.2-.8-.4-1.5-.8-3.5-.1-4.4 1.3s-.7 3.3.6 4.3c.2.2.4.4.7.6 8.5 8.5-4.4 21.3-12.8 12.8-.2-.2-.4-.4-.6-.7-1.1-1.4-3-1.7-4.4-.6-1.6.9-2.1 2.9-1.2 4.4.1.2.2.5.3.7 4.6 11.1-12.2 18.1-16.8 6.9l-.3-.9c-.5-1.6-2.2-2.6-3.9-2.2-1.7.3-2.9 1.8-2.7 3.5v.9c0 12-18.2 12-18.2 0v-.9c.1-1.6-1.2-3.2-2.8-3.5-1.6-.4-3.3.6-3.8 2.3-.1.3-.2.5-.3.8-4.6 11.1-21.4 4.1-16.8-6.9.1-.3.2-.5.4-.8.9-1.6.4-3.5-1.1-4.3-1.4-1.1-3.4-.8-4.5.6-.2.2-.3.4-.5.6-8.5 8.5-21.3-4.3-12.8-12.8l.6-.6c1.3-1.1 1.4-3.2.5-4.6s-2.8-1.9-4.3-1c-.2.1-.5.2-.7.3-11.1 4.6-18-12.2-6.9-16.8.3-.1.5-.2.8-.3 1.7-.5 2.6-2.2 2.2-3.9-.2-1.7-1.7-2.9-3.5-2.8h-.9c-12 0-12-18.2 0-18.2h.9c1.7.1 3.2-1.3 3.5-2.9.3-1.7-.6-3.3-2.2-3.8-.3-.1-.6-.2-.8-.3-11.1-4.6-4.2-21.4 6.9-16.8.3.1.5.2.7.3 2.7 1.5 4.2-1.1 4.5-1.3.9-1.4.6-3.3-.7-4.3-.2-.2-.4-.3-.6-.5-8.5-8.5 4.5-21.2 12.8-12.8l.6.6c1.1 1.3 3.2 1.4 4.6.5s1.9-2.8 1.1-4.2c-.1-.3-.3-.5-.4-.8-4.6-11.1 12.2-17.9 16.8-7 .1.3.2.6.3.8.5 1.6 2.4 2.5 4 2.2s2.8-1.8 2.6-3.5v-.9c0-12 18.2-12 18.2 0v.9c-.2 1.7 1.2 3.3 2.9 3.5 1.7.3 3.3-.7 3.7-2.3.1-.3.2-.5.3-.8 4.6-11.1 21.3-4 16.8 6.9-.1.3-.2.5-.4.8-.8 1.5-.3 3.3 1 4.2.3.1 2.7 2 4.7-.5.2-.2.3-.4.5-.6 8.5-8.5 21.3 4.4 12.9 12.8-.2.2-.5.4-.7.6-1.3 1.1-1.5 2.9-.6 4.3.9 1.6 2.8 2.2 4.4 1.3.2-.1.5-.3.8-.4 11.1-4.6 18 12.2 7 16.8-.3.1-.6.2-.8.3-1.6.5-2.5 2.4-2.2 4 .3 1.7 1.9 2.8 3.5 2.6h.9c11.8.6 11.7 18.8-.3 18.8z" fill="#752137" data-original="#000000" class=""></path><path d="M274.1 280.6c-23 0-41.7 18.7-41.7 41.7s18.7 41.7 41.7 41.7 41.7-18.7 41.7-41.7c-.1-23-18.8-41.7-41.7-41.7zm0 76.8c-19.4 0-35.1-15.8-35.1-35.1 0-19.4 15.8-35.2 35.1-35.2 19.4 0 35.2 15.8 35.2 35.2-.1 19.4-15.9 35.1-35.2 35.1zM274.1 271.2c1.8 0 3.2-1.5 3.2-3.2 0-2-1.6-3.2-3.2-3.2-1.9 0-3.2 1.5-3.2 3.2-.1 1.7 1.3 3.2 3.2 3.2zM253.3 275.3c1.8 0 3.3-1.5 3.3-3.3 0-2.1-1.9-3.6-3.9-3.2-1.8.5-2.6 1.7-2.6 3.2-.1 1.9 1.4 3.3 3.2 3.3zM235.6 287.1c1.7 0 3.3-1.4 3.3-3.3 0-1.7-1.3-3.2-3.3-3.2-1.9 0-3.3 1.5-3.3 3.2.1 1.9 1.5 3.3 3.3 3.3zM224.5 298.3c-1.9-.4-3.9 1-3.9 3.2 0 2 1.6 3.3 3.3 3.3s3.3-1.4 3.3-3.3c-.1-1.4-1-2.8-2.7-3.2zM223 322.3c0-1.9-1.6-3.2-3.3-3.2-1.9 0-3.3 1.6-3.3 3.2 0 1.8 1.4 3.3 3.3 3.3 1.8-.1 3.3-1.6 3.3-3.3zM223.2 339.9c-1.7.4-2.6 1.7-2.6 3.2 0 1.8 1.4 3.3 3.3 3.3 1.8 0 3.3-1.5 3.3-3.3-.1-2-2-3.6-4-3.2zM235.6 357.5c-1.6 0-3.3 1.3-3.3 3.3 0 1.8 1.5 3.3 3.3 3.3 1.9 0 3.3-1.6 3.3-3.3 0-1.8-1.4-3.3-3.3-3.3zM253.3 369.3c-1.9 0-3.3 1.6-3.3 3.2 0 1.7 1.4 3.3 3.3 3.3 1.8 0 3.3-1.5 3.3-3.3-.1-1.8-1.6-3.2-3.3-3.2zM273.7 373.4c-1.7.2-2.9 1.6-2.9 3.2 0 1.8 1.5 3.3 3.3 3.3 2.2 0 3.7-2.1 3.2-3.9-.5-1.7-1.9-2.8-3.6-2.6zM297.2 370.2c-.9-1.1-3.2-1.4-4.6 0-1.2 1.2-1.4 3.3 0 4.6 1.3 1.3 3.4 1.2 4.6 0 1.3-1.3 1.2-3.3 0-4.6zM314.8 358.4c-1.2-1.2-3.3-1.3-4.6 0s-1.3 3.4 0 4.6c1.3 1.3 3.5 1.2 4.6 0 1.4-1.3 1.2-3.4 0-4.6zM326.6 340.8c-1.2-1.2-3.4-1.2-4.6 0s-1.3 3.3 0 4.6 3.3 1.3 4.6 0c1.3-1.4 1.2-3.4 0-4.6zM329.1 319.1c-2-.4-3.9 1.2-3.9 3.2 0 1.7 1.4 3.3 3.3 3.3 1.8 0 3.3-1.4 3.3-3.3-.1-1.6-1.4-3-2.7-3.2zM324.3 304.8c1.7 0 3.3-1.3 3.3-3.3 0-2.2-2-3.6-3.9-3.2-1.5.4-2.6 1.5-2.6 3.2 0 1.9 1.6 3.3 3.2 3.3zM311.9 280.6c-1.7.4-2.6 1.8-2.6 3.2 0 1.7 1.4 3.3 3.3 3.3 1.7 0 3.3-1.4 3.3-3.3-.1-1.9-1.8-3.5-4-3.2zM294.9 275.3c1.8 0 3.3-1.5 3.3-3.3 0-1.4-.8-2.7-2.6-3.2-2.3-.4-3.9 1.3-3.9 3.2-.1 1.8 1.4 3.3 3.2 3.3zM235.1 473.3c0 1.7 1.4 3.3 3.3 3.3 1.8 0 3.3-1.4 3.3-3.3 0-1.8-1.4-3.2-3.3-3.2-2 0-3.3 1.5-3.3 3.2zM284.7 470.1c-1.2.1-2.6 1.4-2.6 3.2 0 1.7 1.4 3.3 3.3 3.3 1.7 0 3.3-1.4 3.3-3.3-.1-2-2.1-3.6-4-3.2zM332.3 470.1c-1.7 0-3.3 1.4-3.3 3.2 0 1.7 1.4 3.3 3.3 3.3 1.8 0 3.3-1.4 3.3-3.3-.1-1.9-1.6-3.2-3.3-3.2zM263.6 435.6c-1.2-1.3-3.6-1.3-4.8 0l-7.5 8.1c-1.2 1.3-1.1 3.4.2 4.6s3.4 1.1 4.6-.2l5.1-5.5 5.1 5.5c1.2 1.3 3.3 1.4 4.6.2s1.4-3.3.2-4.6zM310.3 435.6c-1.2-1.3-3.6-1.3-4.8 0l-7.5 8.1c-1.2 1.3-1.1 3.4.2 4.6s3.4 1.1 4.6-.2l5.1-5.5 5.1 5.5c1.2 1.3 3.3 1.4 4.6.2s1.4-3.3.2-4.6z" fill="#752137" data-original="#000000" class=""></path></g></svg>