<svg xmlns="http://www.w3.org/2000/svg" version="1.1" xmlns:xlink="http://www.w3.org/1999/xlink" xmlns:svgjs="http://svgjs.com/svgjs" x="0" y="0" viewBox="0 0 64 64" style="enable-background:new 0 0 512 512" xml:space="preserve" class="">

	  <style>
  @keyframes draw {
      0% {
        stroke-dashoffset: 1000;
        stroke-dasharray: 1000;
      }
      100% {
        stroke-dashoffset: 0;
        stroke-dasharray: 1000;
      }
    }

    path {
      fill: none;
      stroke: #752137;
      stroke-width: 1;
      stroke-dashoffset: 1000;
      stroke-dasharray: 1000;
      animation: draw 8s linear infinite;
    }
  </style>
  <g><path d="M21.859 59.886c3.649.7 8.006 1.171 12.472 1.171 5.631 0 11.436-.75 16.21-2.742 6.837-2.851 10.573-7.731 11.104-14.505.501-6.389-3.044-11.902-8.822-13.717-2.474-.777-5.062-.665-7.632-.132l.882-.777a1 1 0 0 0-.4-1.716c-1.758-.476-3.108-1.704-4.538-3.005-.624-.568-1.269-1.155-1.958-1.683-2.285-1.752-5.139-2.841-8.982-3.427-3.696-.565-6.814-.508-9.531.171-4.601 1.151-8.236 4.402-9.724 8.695l1.89.655c1.266-3.653 4.376-6.423 8.319-7.41 2.455-.614 5.315-.659 8.744-.134 3.497.533 6.06 1.498 8.067 3.037.622.477 1.208 1.011 1.829 1.575 1.138 1.036 2.305 2.098 3.733 2.825l-2.807 2.475c-1.158.403-2.296.837-3.401 1.26-1.383.53-2.689 1.03-3.931 1.43-4.386 1.41-8.99 1.772-13.313 1.047-1.089-.183-2.184-.51-3.342-.856-.452-.135-.906-.27-1.362-.398-.56-.288-1.944-1.153-2.633-2.256l-1.696 1.06c.11.177.238.34.366.503-1.321-.031-2.66.195-4.019.879C4.113 35.559 2 38.986 2 42.644c0 13.437 14.947 16.301 19.859 17.242zM8.283 35.699c.952-.479 1.918-.665 2.901-.665 1.22 0 2.468.286 3.747.647-.118.764-.445 1.957-1.378 2.424l.895 1.789c1.592-.796 2.19-2.475 2.416-3.645.362.106.726.211 1.094.308-.102.856-.452 2.523-1.664 3.735l1.414 1.414c1.539-1.538 2.044-3.551 2.21-4.73.604.097 1.213.173 1.825.231.089 1.199.053 3.582-1.405 5.041l1.414 1.414c1.917-1.917 2.089-4.736 2.005-6.339.471.012.942.02 1.415.009.351 1.12.828 3.591-.915 5.536l1.489 1.335c2.181-2.432 1.897-5.335 1.47-6.991.344-.031.688-.069 1.033-.112.119 1.946.475 5.81 1.47 7.439l1.707-1.043c-.669-1.094-1.059-4.387-1.193-6.705.252-.048.503-.105.755-.159.087 1.768.638 4.877 3.23 7.085l1.297-1.522c-2.227-1.897-2.523-4.782-2.538-6.062.34-.097.681-.187 1.018-.295l.003-.001c.303 1.831 1.322 5.053 4.763 6.481l.767-1.848c-2.791-1.158-3.452-4-3.61-5.301.415-.152.847-.318 1.274-.48.415 1.783 1.747 4.2 4.96 5.262l.628-1.899c-2.835-.937-3.521-3.094-3.688-4.084 4.318-1.639 9.066-3.242 13.133-1.964 4.87 1.53 7.854 6.212 7.428 11.652-.468 5.965-3.792 10.277-9.879 12.816-8.152 3.399-19.569 2.979-27.537 1.452C9.794 55.538 4 50.684 4 42.644c0-2.909 1.681-5.635 4.283-6.945zM60.293 5.293l-9.057 9.057 6.618-10.829-1.707-1.043L47.822 16.1a12.374 12.374 0 0 0-2.933-.094A1 1 0 0 0 45 18c.55 0 .996.244 1.338.529l-1.192 1.95a1 1 0 0 0 1.562 1.228l.703-.703c.068.883.027 2.124-.381 3.754l1.94.485c.755-3.022.455-4.995.178-5.977l.54-.54c.456.222.881.496 1.233.853.957.969 1.322 2.415 1.087 4.297l1.984.248c.315-2.52-.239-4.522-1.647-5.95a6.186 6.186 0 0 0-1.18-.925L61.707 6.707zM42.111 11.735l-3.734-2.241a17.148 17.148 0 0 0-14.044-1.627L8.117 13.056a3.051 3.051 0 0 0-2.025 3.638 3.046 3.046 0 0 0 3.916 2.15l17.839-5.947a15.153 15.153 0 0 1 7.758-.483l5.796 1.159a.999.999 0 0 0 .71-1.838zm-14.898-.736L9.375 16.946c-.278.094-.575.066-.833-.075s-.439-.376-.51-.662a1.047 1.047 0 0 1 .694-1.248l16.216-5.189a15.14 15.14 0 0 1 10.92.655 17.174 17.174 0 0 0-8.649.572z" fill="#752137" data-original="#000000" class=""></path></g></svg>