<svg viewBox="0 0 100 115" fill="none" xmlns="http://www.w3.org/2000/svg">

  <style>
  @keyframes scale {
  0% {
    transform: scale(1);
  }
  50% {
    transform: scale(1.5);
  }
  100% {
    transform: scale(1);
  }
}

path {
  animation: scale 2s infinite;
}
  </style>
<path d="M72.8622 5.13628C70.2271 2.50115 67.0173 0.749064 63.7935 0.188398C60.3734 -0.400302 57.3458 0.398649 55.2713 2.47311C52.6782 5.0662 46.7632 14.9199 45.2634 22.615C45.2634 22.6571 45.2634 22.7132 45.2634 22.7552C45.2634 22.8533 45.2634 22.9515 45.2634 23.0636C45.2634 23.1617 45.2915 23.2458 45.3195 23.3439C45.3475 23.442 45.3896 23.5261 45.4316 23.6102C45.4737 23.7083 45.5298 23.7784 45.5998 23.8625C45.6279 23.9046 45.6419 23.9466 45.6699 23.9747L52.8885 31.2633L48.7816 35.4263L42.6003 29.2449L43.9739 27.9133C44.5766 27.3387 44.5906 26.3855 44.016 25.7828C43.4413 25.1801 42.4881 25.1661 41.8854 25.7408L39.4045 28.1376C26.1307 41.4114 -4.22938 72.7947 0.494232 77.5323C0.872681 77.9108 1.29319 78.3313 2.19025 78.3313C4.54505 78.3313 10.1237 75.3737 26.425 60.7544C36.9516 51.3071 47.6042 40.8928 49.8749 38.6081L55.7759 32.6089C63.4571 30.955 73.0024 25.2362 75.5254 22.7132C79.6463 18.5923 78.4409 10.7009 72.8622 5.12226V5.13628ZM2.84903 75.1495C4.2507 69.8372 25.1215 46.7658 40.4417 31.3474L46.6511 37.5568C31.2328 52.877 8.17536 73.7478 2.84903 75.1495ZM73.3809 20.5966C71.1102 22.8673 62.2236 28.0255 55.4816 29.5953L48.3892 22.4328C49.959 15.6488 55.0611 6.94443 57.4019 4.61766C58.7615 3.25805 60.85 2.73943 63.2748 3.17394C65.8819 3.63649 68.5311 5.09423 70.7317 7.28083C75.1329 11.6821 76.3384 17.6672 73.3949 20.5966H73.3809Z" fill="#752137"/>
<path d="M71.4738 81.7508H70.759V76.3263C70.759 75.4993 70.0862 74.8125 69.2452 74.8125H56.2798V55.82C56.3499 49.162 60.2885 43.233 66.2737 40.4577C65.8111 45.6158 62.7695 50.3394 58.13 52.8905C57.4011 53.297 57.1348 54.208 57.5273 54.9369C57.8076 55.4415 58.3262 55.7218 58.8588 55.7218C59.0971 55.7218 59.3494 55.6658 59.5877 55.5396C62.363 54.0258 64.6617 51.8532 66.3297 49.2882V72.0793C66.3297 72.9063 67.0025 73.5931 67.8435 73.5931C68.6845 73.5931 69.3573 72.9203 69.3573 72.0793V39.827C69.3713 39.3083 69.3854 38.7757 69.3573 38.2431V38.2291C69.3573 38.201 69.3573 38.173 69.3573 38.145C69.3573 38.0749 69.3153 38.0188 69.3013 37.9487C69.3013 37.8927 69.3012 37.8226 69.2872 37.7665C69.2872 37.7385 69.2592 37.7385 69.2592 37.7104C69.2592 37.6684 69.2312 37.6404 69.2172 37.6123C69.1891 37.5422 69.133 37.4862 69.091 37.4161C69.0489 37.346 69.0069 37.2759 68.9508 37.2058C68.9228 37.1778 68.9088 37.1498 68.8808 37.1358C68.8387 37.1077 68.7967 37.0797 68.7546 37.0517C68.7546 37.0517 68.7546 37.0517 68.7406 37.0517C68.6565 36.9956 68.5864 36.9255 68.4883 36.8835C68.4602 36.8694 68.4182 36.8554 68.3902 36.8414C68.3481 36.8274 68.2921 36.8274 68.25 36.8134C68.1379 36.7853 68.0398 36.7573 67.9136 36.7433C67.8996 36.7433 67.8716 36.7433 67.8575 36.7433C67.8435 36.7433 67.8295 36.7433 67.8155 36.7433C67.8155 36.7433 67.7875 36.7433 67.7734 36.7433C67.7034 36.7433 67.6473 36.7853 67.5772 36.7994C67.5071 36.7994 67.4511 36.7994 67.381 36.8274C67.3389 36.8274 67.2969 36.8554 67.2548 36.8694C58.985 39.5887 53.3783 47.1857 53.2802 55.834V74.8546C52.4953 74.9106 51.8645 75.5414 51.8645 76.3403V78.7372C51.8645 79.5642 52.5373 80.251 53.3783 80.251C54.2193 80.251 54.8921 79.5782 54.8921 78.7372V77.8541H67.7734V81.7648H51.1637C50.3367 81.7648 49.6499 82.4376 49.6499 83.2786V110.373C49.6499 112.882 51.7664 114.998 54.2754 114.998H68.4883C70.9832 114.998 73.0157 112.924 73.0157 110.373V83.2786C73.0157 82.4516 72.3429 81.7648 71.5019 81.7648L71.4738 81.7508ZM68.4603 111.957H54.2474C53.3923 111.957 52.6495 111.214 52.6495 110.359V84.7784H69.9741V106.63H58.158C57.331 106.63 56.6442 107.303 56.6442 108.144C56.6442 108.985 57.317 109.658 58.158 109.658H69.9741V110.373C69.9741 111.256 69.3013 111.971 68.4603 111.971V111.957Z" fill="#752137"/>
<path d="M95.0083 66.9062H80.7954C78.2864 66.9062 76.1699 69.0228 76.1699 71.5177V113.442C76.1699 114.269 76.8427 114.955 77.6837 114.955H98.12C98.947 114.955 99.6338 114.283 99.6338 113.442V71.5177C99.6338 69.0087 97.5173 66.9062 95.0083 66.9062ZM79.1975 111.942V71.5177C79.1975 70.6627 79.9404 69.9198 80.7954 69.9198H95.0083C95.8633 69.9198 96.6062 70.6627 96.6062 71.5177V72.2326H84.7902C83.9632 72.2326 83.2764 72.9054 83.2764 73.7464C83.2764 74.5874 83.9492 75.2602 84.7902 75.2602H96.6062V111.942H79.1975Z" fill="#752137"/>
</svg>
