<svg xmlns="http://www.w3.org/2000/svg" version="1.1" xmlns:xlink="http://www.w3.org/1999/xlink" xmlns:svgjs="http://svgjs.com/svgjs" x="0" y="0" viewBox="0 0 486.076 486.076" style="enable-background:new 0 0 512 512" xml:space="preserve" class="">
	  <style>
  @keyframes pulse {
  0% {
    transform: scale(1);
  }
  50% {
    transform: scale(1.2);
  }
  100% {
    transform: scale(1);
  }
}
path {
  animation: pulse 2s infinite;
}
  </style>
	<g><path d="M159.912 377.638h-14.875v-15h14.875zm-29.875 0h-15v-15h15zm-30 0h-15v-15h15z" fill="#752137" data-original="#000000" class=""></path><path d="M185.131 205.812v-7.932a67.618 67.618 0 0 0 13.124-6.962l131.284-89.334 24.191 35.55 131.824-89.701-8.439-12.401-92.966 63.26-45.288-66.553-12.4 8.438 45.288 66.553-14.055 9.564-59.07-86.809 25.107-17.084L315.29 0l-37.508 25.523 25.316 37.204-117.971 80.275c-.074-15.101-12.379-27.363-27.497-27.363h-71c-15.164 0-27.5 12.336-27.5 27.5v62.514c-22.029 18.591-34.594 45.526-34.594 74.486v205.938h15V280.138c0-19.88 6.998-38.636 19.594-53.409v50.909c0 34.738 28.262 63 63 63s63-28.261 63-63v-50.683c12.475 14.741 19.406 33.412 19.406 53.182v205.938h15V280.138c.001-28.862-12.496-55.74-34.405-74.326zm4.686-27.295c-8.845 6.018-19.146 9.153-29.871 9.095l-33.388-.213.108-16.999 32.765.209a37.31 37.31 0 0 0 21.336-6.496L310.71 75.69l9.563 14.055zm-67.686 147.121c-14.665 0-27.806-6.617-36.618-17.014 9.078-10.713 22.409-16.986 36.618-16.986 4.501 0 8.955.621 13.236 1.846l4.127-14.421a63.104 63.104 0 0 0-17.363-2.425 62.932 62.932 0 0 0-44.658 18.563 47.716 47.716 0 0 1-3.342-17.562v-134.5c0-6.893 5.607-12.5 12.5-12.5h71c6.893 0 12.5 5.607 12.5 12.5v9.875a22.4 22.4 0 0 1-10.604 2.595l-47.765-.305-.3 46.998 48.388.31.438.001c3.316 0 6.603-.244 9.843-.719v75.745c0 6.2-1.195 12.123-3.344 17.568a63.142 63.142 0 0 0-10.326-8.402l-8.184 12.571a48.007 48.007 0 0 1 10.478 9.24c-8.812 10.402-21.956 17.022-36.624 17.022zM15.522 23.851h15v15h-15zM15.522 53.851h15v15h-15zM30.522 38.851h15v15h-15zM.522 38.851h15v15h-15zM369.897 248.788h15v15h-15zM369.897 278.788h15v15h-15zM384.897 263.788h15v15h-15zM354.897 263.788h15v15h-15z" fill="#752137" data-original="#000000" class=""></path><path d="M270.397 340.174h15v14.938h-15zM300.397 155.516h15v14.938h-15zM144.869 48.382h15V63.32h-15z" fill="#752137" data-original="#000000" class=""></path></g></svg>