<svg xmlns="http://www.w3.org/2000/svg" width="162" height="52" viewBox="0 0 162 52" fill="none"><g clip-path="url(#clip0)"><path d="M31.0049 47.094L25.1602 50.6362L24.4546 51.0639C24.414 51.0883 24.3729 51.1121 24.3323 51.1347C24.3126 51.1453 24.2929 51.1566 24.2733 51.1672C24.2291 51.1917 24.1826 51.2142 24.1379 51.2367C24.111 51.2499 24.0842 51.263 24.0567 51.2749C24.0341 51.2856 24.0108 51.2962 23.9882 51.3063C23.9565 51.32 23.9255 51.3332 23.8933 51.3463C23.8659 51.3576 23.8384 51.3689 23.8104 51.3795C22.6759 51.816 21.4019 51.7101 20.3337 51.0639L3.01311 40.5668C1.73788 39.7935 0.952942 38.3658 0.952942 36.8198V15.8244C0.952942 14.279 1.73788 12.8507 3.01311 12.0774L19.0894 2.33358L20.3337 1.57905C21.6089 0.806983 23.1794 0.806983 24.4546 1.57905L41.7751 12.0768C43.0498 12.8501 43.8353 14.2784 43.8353 15.8238V36.8192C43.8353 38.3652 43.0504 39.7929 41.7751 40.5662L40.4092 41.394L39.6195 41.8724L32.8945 45.9481" fill="url(#paint0_linear)"></path><path d="M33.5029 16.5201C32.8146 16.5201 32.1906 16.9448 31.9095 17.6059L28.6411 25.2931C29.3414 23.5037 29.6265 21.7467 29.3334 20.2789C28.9901 18.5578 27.8516 17.2335 25.657 16.7202C25.4398 16.6691 25.2109 16.6261 24.9707 16.591C24.9607 16.5898 24.9506 16.5881 24.9406 16.5868C24.9531 16.5868 24.9651 16.5864 24.9779 16.5864C24.2109 16.4775 23.3263 16.4517 22.3111 16.5201C21.62 16.5201 20.9405 16.5982 20.2824 16.7476C17.3344 17.4176 14.8106 19.5232 13.5472 22.4939L10.1507 30.483C10.1383 30.5125 10.125 30.5421 10.1126 30.5721C8.03203 35.5593 6.0547 36.0161 6.0547 36.0161H11.7795C13.144 36.0161 14.3813 35.1726 14.9383 33.8631L18.9981 24.3129C19.2945 23.7591 19.8382 23.0224 20.7458 22.6501C20.839 22.615 20.9333 22.5813 21.0285 22.5496C21.3598 22.4407 21.7019 22.3554 22.0481 22.2951C25.3064 21.729 28.917 23.4087 27.0481 29.0422L26.3353 30.7194C26.3212 30.7532 26.3072 30.7865 26.2923 30.8194C24.0017 36.0161 22.328 36.0161 22.328 36.0161H28.0074C29.4069 36.0161 30.6754 35.1511 31.2465 33.8082L38.5956 16.5201H33.5029Z" fill="white"></path><path d="M55.7 43H57.22L58.23 39.13L59.24 43H60.75L62.37 37.46H61.03L60.05 41.67L59.01 37.46H57.53L56.47 41.68L55.49 37.46H54.07L55.7 43ZM67.0775 38.26V37.46H65.6775V45.64H67.0775V42.21C67.4175 42.66 68.0375 43.09 68.9075 43.09C70.3275 43.09 71.4375 41.94 71.4375 40.21C71.4375 38.48 70.3275 37.37 68.9075 37.37C68.0475 37.37 67.4075 37.79 67.0775 38.26ZM70.0075 40.21C70.0075 41.26 69.2975 41.86 68.5375 41.86C67.7875 41.86 67.0775 41.28 67.0775 40.23C67.0775 39.18 67.7875 38.6 68.5375 38.6C69.2975 38.6 70.0075 39.16 70.0075 40.21ZM75.0248 40.02H79.2648V38.84H75.0248V40.02ZM87.2649 43H88.6649V39.75C88.6649 38.22 87.7449 37.38 86.4549 37.38C85.7449 37.38 85.1449 37.68 84.7849 38.15V37.46H83.3849V43H84.7849V39.94C84.7849 39.05 85.2749 38.57 86.0349 38.57C86.7749 38.57 87.2649 39.05 87.2649 39.94V43ZM94.9263 38.52C95.6463 38.52 96.2263 38.98 96.2463 39.71H93.6163C93.7263 38.95 94.2563 38.52 94.9263 38.52ZM97.5563 41.26H96.0463C95.8663 41.63 95.5363 41.93 94.9363 41.93C94.2363 41.93 93.6763 41.47 93.6063 40.65H97.6563C97.6863 40.47 97.6963 40.29 97.6963 40.11C97.6963 38.46 96.5663 37.37 94.9663 37.37C93.3263 37.37 92.1863 38.48 92.1863 40.23C92.1863 41.97 93.3563 43.09 94.9663 43.09C96.3363 43.09 97.2563 42.28 97.5563 41.26ZM102.278 43H103.798L104.808 39.13L105.818 43H107.328L108.948 37.46H107.608L106.628 41.67L105.588 37.46H104.108L103.048 41.68L102.068 37.46H100.648L102.278 43ZM116.556 41.42C116.516 39.39 113.446 40.02 113.446 39.01C113.446 38.69 113.716 38.48 114.236 38.48C114.786 38.48 115.126 38.77 115.166 39.2H116.506C116.426 38.1 115.616 37.37 114.276 37.37C112.906 37.37 112.086 38.11 112.086 39.03C112.086 41.06 115.216 40.43 115.216 41.42C115.216 41.74 114.916 41.99 114.366 41.99C113.806 41.99 113.416 41.67 113.366 41.25H111.956C112.016 42.28 112.986 43.09 114.376 43.09C115.726 43.09 116.556 42.37 116.556 41.42ZM121.655 38.26V37.46H120.255V45.64H121.655V42.21C121.995 42.66 122.615 43.09 123.485 43.09C124.905 43.09 126.015 41.94 126.015 40.21C126.015 38.48 124.905 37.37 123.485 37.37C122.625 37.37 121.985 37.79 121.655 38.26ZM124.585 40.21C124.585 41.26 123.875 41.86 123.115 41.86C122.365 41.86 121.655 41.28 121.655 40.23C121.655 39.18 122.365 38.6 123.115 38.6C123.875 38.6 124.585 39.16 124.585 40.21ZM129.222 40.21C129.222 41.94 130.342 43.09 131.742 43.09C132.622 43.09 133.252 42.67 133.582 42.19V43H134.992V37.46H133.582V38.25C133.252 37.79 132.642 37.37 131.752 37.37C130.342 37.37 129.222 38.48 129.222 40.21ZM133.582 40.23C133.582 41.28 132.882 41.86 132.112 41.86C131.362 41.86 130.652 41.26 130.652 40.21C130.652 39.16 131.362 38.6 132.112 38.6C132.882 38.6 133.582 39.18 133.582 40.23ZM140.31 38.26V37.46H138.91V45.64H140.31V42.21C140.65 42.66 141.27 43.09 142.14 43.09C143.56 43.09 144.67 41.94 144.67 40.21C144.67 38.48 143.56 37.37 142.14 37.37C141.28 37.37 140.64 37.79 140.31 38.26ZM143.24 40.21C143.24 41.26 142.53 41.86 141.77 41.86C141.02 41.86 140.31 41.28 140.31 40.23C140.31 39.18 141.02 38.6 141.77 38.6C142.53 38.6 143.24 39.16 143.24 40.21ZM150.617 38.52C151.337 38.52 151.917 38.98 151.937 39.71H149.307C149.417 38.95 149.947 38.52 150.617 38.52ZM153.247 41.26H151.737C151.557 41.63 151.227 41.93 150.627 41.93C149.927 41.93 149.367 41.47 149.297 40.65H153.347C153.377 40.47 153.387 40.29 153.387 40.11C153.387 38.46 152.257 37.37 150.657 37.37C149.017 37.37 147.877 38.48 147.877 40.23C147.877 41.97 149.047 43.09 150.657 43.09C152.027 43.09 152.947 42.28 153.247 41.26ZM158.359 40.24C158.359 39.17 158.859 38.85 159.689 38.85H160.059V37.38C159.289 37.38 158.709 37.75 158.359 38.32V37.46H156.959V43H158.359V40.24Z" fill="#7E7E7E"></path><path d="M67.198 31H72.978V19.916C72.978 14.816 70.054 11.824 65.668 11.824C63.118 11.824 61.078 12.946 59.922 14.544V12.028H54.108V31H59.922V20.698C59.922 18.114 61.35 16.686 63.56 16.686C65.77 16.686 67.198 18.114 67.198 20.698V31ZM85.3822 16.414C87.3202 16.414 88.9522 17.604 88.9522 19.678H81.6762C82.0162 17.57 83.4782 16.414 85.3822 16.414ZM94.4602 24.71H88.2722C87.7962 25.73 86.8782 26.546 85.2462 26.546C83.3762 26.546 81.8462 25.39 81.6422 22.908H94.8002C94.8682 22.33 94.9022 21.752 94.9022 21.208C94.9022 15.428 90.9922 11.756 85.4502 11.756C79.8062 11.756 75.8622 15.496 75.8622 21.514C75.8622 27.532 79.8742 31.272 85.4502 31.272C90.1762 31.272 93.5422 28.416 94.4602 24.71ZM106.333 16.414C108.271 16.414 109.903 17.604 109.903 19.678H102.627C102.967 17.57 104.429 16.414 106.333 16.414ZM115.411 24.71H109.223C108.747 25.73 107.829 26.546 106.197 26.546C104.327 26.546 102.797 25.39 102.593 22.908H115.751C115.819 22.33 115.853 21.752 115.853 21.208C115.853 15.428 111.943 11.756 106.401 11.756C100.757 11.756 96.8133 15.496 96.8133 21.514C96.8133 27.532 100.825 31.272 106.401 31.272C111.127 31.272 114.493 28.416 115.411 24.71ZM137.485 21.514C137.485 15.496 133.201 11.756 127.625 11.756C122.083 11.756 117.765 15.496 117.765 21.514C117.765 27.532 121.981 31.272 127.557 31.272C133.133 31.272 137.485 27.532 137.485 21.514ZM123.681 21.514C123.681 18.284 125.517 16.788 127.625 16.788C129.665 16.788 131.569 18.284 131.569 21.514C131.569 24.71 129.631 26.24 127.557 26.24C125.449 26.24 123.681 24.71 123.681 21.514ZM153.659 31H159.439V19.916C159.439 14.816 156.515 11.824 152.129 11.824C149.579 11.824 147.539 12.946 146.383 14.544V12.028H140.569V31H146.383V20.698C146.383 18.114 147.811 16.686 150.021 16.686C152.231 16.686 153.659 18.114 153.659 20.698V31Z" fill="black"></path></g><defs><linearGradient id="paint0_linear" x1="37.3547" y1="5.55788" x2="8.82308" y2="45.15" gradientUnits="userSpaceOnUse"><stop stop-color="#003CFF"></stop><stop offset="1" stop-color="#007AFF" stop-opacity="0.87"></stop></linearGradient><clipPath id="clip0"><rect width="162" height="52" fill="white"></rect></clipPath></defs></svg>