<svg xmlns="http://www.w3.org/2000/svg" xmlns:xlink="http://www.w3.org/1999/xlink" id="Layer_1" data-name="Layer 1" viewBox="0 0 159.11 50.64"><defs><style>.cls-1{fill:url(#linear-gradient);}.cls-2{fill:#fff;}.cls-3{fill:#ededed;}</style><linearGradient id="linear-gradient" x1="37.36" y1="48.44" x2="8.82" y2="8.85" gradientTransform="matrix(1, 0, 0, -1, 0, 54)" gradientUnits="userSpaceOnUse"><stop offset="0" stop-color="#003cff"></stop><stop offset="1" stop-color="#007aff" stop-opacity="0.87"></stop></linearGradient></defs><title>logo-white</title><path class="cls-1" d="M31,47.09l-5.84,3.55-.71.42-.12.07-.06,0-.13.07-.08,0-.07,0-.1,0-.08,0a3.94,3.94,0,0,1-3.48-.32L3,40.57A4.39,4.39,0,0,1,1,36.82v-21A4.37,4.37,0,0,1,3,12.08L19.09,2.33l1.24-.75a4,4,0,0,1,4.12,0l17.33,10.5a4.37,4.37,0,0,1,2.06,3.74v21a4.39,4.39,0,0,1-2.06,3.75l-1.37.82-.79.48L32.89,46" transform="translate(-0.95 -1)"></path><path class="cls-2" d="M33.5,16.52a1.73,1.73,0,0,0-1.59,1.09l-3.27,7.68a9.14,9.14,0,0,0,.69-5,4.43,4.43,0,0,0-3.67-3.56L25,16.59h0a12.73,12.73,0,0,0-2.67-.07,9.16,9.16,0,0,0-2,.23,9.69,9.69,0,0,0-6.73,5.74l-3.4,8,0,.09C8,35.56,6.05,36,6.05,36h5.73a3.47,3.47,0,0,0,3.16-2.16L19,24.31a3.55,3.55,0,0,1,1.75-1.66l.28-.1a6.9,6.9,0,0,1,1-.25c3.26-.57,6.87,1.11,5,6.74l-.71,1.68-.05.1c-2.29,5.2-4,5.2-4,5.2H28a3.55,3.55,0,0,0,3.24-2.21L38.6,16.52Z" transform="translate(-0.95 -1)"></path><path class="cls-3" d="M55.7,43h1.52l1-3.87,1,3.87h1.51l1.62-5.54H61l-1,4.21-1-4.21H57.53l-1.06,4.22-1-4.22H54.07Zm11.38-4.74v-.8h-1.4v8.18h1.4V42.21a2.26,2.26,0,0,0,1.83.88,2.62,2.62,0,0,0,2.53-2.88,2.59,2.59,0,0,0-2.53-2.84A2.21,2.21,0,0,0,67.08,38.26Zm2.93,2a1.52,1.52,0,0,1-1.47,1.65,1.64,1.64,0,0,1,0-3.26A1.48,1.48,0,0,1,70,40.21ZM75,40h4.24V38.84H75Zm12.24,3h1.4V39.75a2.13,2.13,0,0,0-2.21-2.37,2.07,2.07,0,0,0-1.67.77v-.69h-1.4V43h1.4V39.94a1.25,1.25,0,1,1,2.48,0Zm7.67-4.48a1.23,1.23,0,0,1,1.32,1.19H93.62A1.29,1.29,0,0,1,94.93,38.52Zm2.63,2.74H96.05a1.14,1.14,0,0,1-1.11.67,1.3,1.3,0,0,1-1.33-1.28h4a3.27,3.27,0,0,0,0-.54A2.6,2.6,0,0,0,95,37.37a2.86,2.86,0,0,0,0,5.72A2.57,2.57,0,0,0,97.56,41.26ZM102.28,43h1.52l1-3.87,1,3.87h1.51L109,37.46h-1.34l-1,4.21-1-4.21h-1.48l-1.06,4.22-1-4.22h-1.42Zm14.28-1.58c0-2-3.11-1.4-3.11-2.41,0-.32.27-.53.79-.53a.83.83,0,0,1,.93.72h1.34a2,2,0,0,0-2.23-1.83c-1.37,0-2.19.74-2.19,1.66,0,2,3.13,1.4,3.13,2.39,0,.32-.3.57-.85.57a.92.92,0,0,1-1-.74H112a2.18,2.18,0,0,0,2.42,1.84C115.73,43.09,116.56,42.37,116.56,41.42Zm5.09-3.16v-.8h-1.4v8.18h1.4V42.21a2.28,2.28,0,0,0,1.84.88A2.62,2.62,0,0,0,126,40.21a2.59,2.59,0,0,0-2.52-2.84A2.23,2.23,0,0,0,121.65,38.26Zm2.93,2a1.47,1.47,0,1,1-1.47-1.61A1.47,1.47,0,0,1,124.58,40.21Zm4.64,0a2.63,2.63,0,0,0,2.52,2.88,2.18,2.18,0,0,0,1.84-.9V43H135V37.46h-1.41v.79a2.19,2.19,0,0,0-1.83-.88A2.59,2.59,0,0,0,129.22,40.21Zm4.36,0a1.49,1.49,0,0,1-1.47,1.63,1.51,1.51,0,0,1-1.46-1.65,1.47,1.47,0,1,1,2.93,0Zm6.73-2v-.8h-1.4v8.18h1.4V42.21a2.26,2.26,0,0,0,1.83.88,2.62,2.62,0,0,0,2.53-2.88,2.59,2.59,0,0,0-2.53-2.84A2.21,2.21,0,0,0,140.31,38.26Zm2.93,2a1.52,1.52,0,0,1-1.47,1.65,1.64,1.64,0,0,1,0-3.26A1.48,1.48,0,0,1,143.24,40.21Zm7.38-1.69a1.23,1.23,0,0,1,1.32,1.19h-2.63A1.29,1.29,0,0,1,150.62,38.52Zm2.63,2.74h-1.51a1.14,1.14,0,0,1-1.11.67,1.3,1.3,0,0,1-1.33-1.28h4a3.27,3.27,0,0,0,0-.54,2.6,2.6,0,0,0-2.73-2.74,2.86,2.86,0,0,0,0,5.72A2.57,2.57,0,0,0,153.25,41.26Zm5.11-1c0-1.07.5-1.39,1.33-1.39h.37V37.38a1.92,1.92,0,0,0-1.7.94v-.86H157V43h1.4Z" transform="translate(-0.95 -1)"></path><path class="cls-2" d="M67.2,31H73V19.92c0-5.1-2.93-8.1-7.31-8.1a7,7,0,0,0-5.75,2.72V12H54.11V31h5.81V20.7c0-2.59,1.43-4,3.64-4s3.64,1.42,3.64,4ZM85.38,16.41A3.28,3.28,0,0,1,89,19.68H81.68A3.6,3.6,0,0,1,85.38,16.41Zm9.08,8.3H88.27a3.08,3.08,0,0,1-3,1.84c-1.87,0-3.4-1.16-3.61-3.64H94.8a14.32,14.32,0,0,0,.1-1.7c0-5.78-3.91-9.45-9.45-9.45s-9.59,3.74-9.59,9.75,4,9.76,9.59,9.76C90.18,31.27,93.54,28.42,94.46,24.71Zm11.87-8.3a3.28,3.28,0,0,1,3.57,3.27h-7.27A3.6,3.6,0,0,1,106.33,16.41Zm9.08,8.3h-6.19a3.08,3.08,0,0,1-3,1.84c-1.87,0-3.4-1.16-3.61-3.64h13.16a14.32,14.32,0,0,0,.1-1.7c0-5.78-3.91-9.45-9.45-9.45s-9.59,3.74-9.59,9.75,4,9.76,9.59,9.76C111.13,31.27,114.49,28.42,115.41,24.71Zm22.08-3.2c0-6-4.29-9.75-9.87-9.75s-9.86,3.74-9.86,9.75,4.22,9.76,9.8,9.76S137.49,27.53,137.49,21.51Zm-13.81,0c0-3.23,1.84-4.72,3.94-4.72s3.95,1.49,3.95,4.72-1.94,4.73-4,4.73S123.68,24.71,123.68,21.51Zm30,9.49h5.78V19.92c0-5.1-2.93-8.1-7.31-8.1a7,7,0,0,0-5.75,2.72V12h-5.81V31h5.81V20.7c0-2.59,1.43-4,3.64-4s3.64,1.42,3.64,4Z" transform="translate(-0.95 -1)"></path></svg>